<svg width="1233" height="412" viewBox="0 0 1233 412" fill="none" xmlns="http://www.w3.org/2000/svg">
<path d="M584.549 107.586V134.407H531.199V308.024H498.323V134.407H444.684V107.586H584.549Z" fill="white" fill-opacity="0.6"/>
<path d="M650.719 172.188C655.526 164.113 661.87 157.864 669.752 153.442C677.827 148.828 687.344 146.52 698.302 146.52V180.552H689.939C677.058 180.552 667.253 183.82 660.524 190.357C653.988 196.894 650.719 208.238 650.719 224.388V308.024H617.844V149.116H650.719V172.188Z" fill="white" fill-opacity="0.6"/>
<path d="M717.563 227.849C717.563 211.891 720.831 197.759 727.368 185.454C734.097 173.149 743.133 163.632 754.476 156.903C766.011 149.981 778.7 146.52 792.542 146.52C805.039 146.52 815.901 149.02 825.129 154.019C834.55 158.825 842.048 164.882 847.623 172.188V149.116H880.787V308.024H847.623V284.376C842.048 291.874 834.454 298.123 824.841 303.122C815.228 308.12 804.27 310.62 791.965 310.62C778.315 310.62 765.819 307.159 754.476 300.238C743.133 293.124 734.097 283.318 727.368 270.821C720.831 258.131 717.563 243.807 717.563 227.849ZM847.623 228.426C847.623 217.467 845.316 207.95 840.702 199.874C836.28 191.799 830.416 185.647 823.111 181.417C815.805 177.187 807.923 175.072 799.463 175.072C791.004 175.072 783.122 177.187 775.816 181.417C768.51 185.454 762.551 191.511 757.936 199.586C753.515 207.469 751.304 216.89 751.304 227.849C751.304 238.808 753.515 248.422 757.936 256.689C762.551 264.957 768.51 271.301 775.816 275.724C783.314 279.953 791.196 282.068 799.463 282.068C807.923 282.068 815.805 279.953 823.111 275.724C830.416 271.494 836.28 265.341 840.702 257.266C845.316 248.998 847.623 239.385 847.623 228.426Z" fill="white" fill-opacity="0.6"/>
<path d="M913.009 228.426C913.009 212.083 916.277 197.759 922.814 185.454C929.543 172.957 938.771 163.344 950.499 156.614C962.226 149.885 975.684 146.52 990.872 146.52C1010.1 146.52 1025.96 151.135 1038.46 160.364C1051.14 169.4 1059.7 182.378 1064.12 199.298H1028.65C1025.77 191.415 1021.15 185.262 1014.81 180.84C1008.46 176.418 1000.48 174.207 990.872 174.207C977.414 174.207 966.648 179.013 958.573 188.627C950.691 198.048 946.75 211.314 946.75 228.426C946.75 245.538 950.691 258.9 958.573 268.514C966.648 278.127 977.414 282.934 990.872 282.934C1009.91 282.934 1022.5 274.57 1028.65 257.843H1064.12C1059.51 273.993 1050.86 286.875 1038.17 296.488C1025.48 305.909 1009.71 310.62 990.872 310.62C975.684 310.62 962.226 307.255 950.499 300.526C938.771 293.604 929.543 283.991 922.814 271.686C916.277 259.189 913.009 244.769 913.009 228.426Z" fill="white" fill-opacity="0.6"/>
<path d="M1159.75 228.714L1233 308.024H1188.59L1129.76 239.674V308.024H1096.88V94.6083H1129.76V218.62L1187.44 149.116H1233L1159.75 228.714Z" fill="white" fill-opacity="0.6"/>
<path fill-rule="evenodd" clip-rule="evenodd" d="M0 210.484L0.0198777 208.419L0.0608683 206.354L0.123077 204.289L0.206399 202.224L0.31104 200.159L0.436794 198.094L0.583869 196.03L0.752058 193.965L0.941565 191.902L1.15229 189.839L1.38423 187.779L1.63729 185.719L1.91166 183.661L2.20725 181.605L2.52396 179.552L2.86188 177.501L3.22102 175.451L3.60116 173.406L4.00253 171.362L4.42501 169.322L4.8686 167.284L5.3331 165.251L5.81882 163.222L6.32534 161.196L6.85298 159.175L7.40142 157.157L7.97087 155.145L8.56112 153.137L9.17218 151.135L9.80394 149.138L10.4565 147.146L11.1298 145.159L11.8236 143.178L12.538 141.204L13.273 139.235L14.0283 137.273L14.8042 135.318L15.6003 133.37L16.4167 131.429L17.2534 129.495L18.1102 127.568L18.987 125.649L19.8839 123.738L20.8008 121.835L21.7375 119.939L22.694 118.053L23.6702 116.176L24.666 114.306L25.6813 112.447L26.7161 110.596L27.7703 108.755L28.8437 106.923L29.9364 105.101L31.0481 103.289L32.1789 101.488L33.3285 99.6968L34.4969 97.917L35.6841 96.1464L36.8899 94.3882L38.1142 92.6403L39.3568 90.9037L40.6176 89.1795L41.8967 87.4655L43.1938 85.765L44.5089 84.0758L45.8418 82.3984L47.1923 80.7339L48.5605 79.082L49.946 77.4428L51.349 75.8166L52.7692 74.2035L54.2064 72.6038L55.6605 71.0175L57.1316 69.4449L58.6192 67.8861L60.1234 66.3413L61.644 64.8106L63.1809 63.2942L64.7339 61.7924L66.3029 60.3052L67.8878 58.8329L69.4883 57.3754L71.1044 55.9332L72.7359 54.5063L74.3827 53.0946L76.0445 51.6988L77.7212 50.3187L79.4128 48.9545L81.119 47.6063L82.8397 46.2743L84.5741 44.9588L86.3239 43.6596L88.0872 42.3773L89.8638 41.1117L91.6538 39.8631L93.4583 38.6315L95.2751 37.417L97.1053 36.2201L98.9489 35.0405L100.806 33.8787L102.674 32.7345L104.556 31.6082L106.449 30.5001L108.354 29.41L110.272 28.3382L112.201 27.2848L114.141 26.2499L116.093 25.2337L118.056 24.2361L120.031 23.2575L122.015 22.2979L124.011 21.3573L126.017 20.4359L128.033 19.534L130.059 18.6513L132.095 17.7883L134.141 16.9449L136.195 16.1213L138.259 15.3173L140.333 14.5335L142.414 13.7696L144.505 13.0259L146.604 12.3023L148.711 11.599L150.826 10.9162L152.948 10.2539L155.079 9.61206L157.217 8.99097L159.362 8.39059L161.514 7.8109L163.673 7.25213L165.838 6.71436L168.009 6.19772L170.187 5.70198L172.371 5.22756L174.559 4.77426L176.754 4.34227L178.954 3.93172L181.159 3.54248L183.369 3.17477L185.584 2.82859L187.802 2.50393L190.025 2.20101L192.252 1.91971L194.482 1.66015L196.716 1.42222L198.953 1.20634L201.194 1.01218L203.437 0.839863L205.682 0.689586L217.757 0L218.446 58.1813L218.84 58.1768L220.508 58.1744L222.175 58.1884L223.843 58.2188L225.512 58.2657L227.181 58.3289L228.85 58.4084L230.52 58.5045L232.189 58.6171L233.858 58.7459L235.527 58.8914L237.195 59.0533L238.862 59.2317L240.528 59.4265L242.193 59.6377L243.856 59.8655L245.519 60.1096L247.179 60.3703L248.838 60.6473L250.494 60.9408L252.149 61.2507L253.802 61.577L255.45 61.9198L257.098 62.2788L258.742 62.6543L260.383 63.046L262.021 63.4541L263.656 63.8785L265.286 64.3192L266.914 64.7761L268.538 65.2492L270.157 65.7384L271.772 66.2438L273.383 66.7654L274.989 67.3031L276.591 67.8567L278.187 68.4264L279.78 69.012L281.366 69.6136L282.947 70.231L284.522 70.8643L286.092 71.5134L287.655 72.1782L289.214 72.8587L290.766 73.5549L292.311 74.2666L293.849 74.9938L295.382 75.7365L296.907 76.4947L298.425 77.2682L299.936 78.057L301.44 78.861L302.937 79.6803L304.425 80.5146L305.906 81.3639L307.379 82.2282L308.843 83.1076L310.3 84.0017L311.748 84.9101L313.187 85.834L314.617 86.7713L316.038 87.7241L317.451 88.6912L318.854 89.6718L320.249 90.6678L321.633 91.6772L323.007 92.701L324.373 93.7393L325.727 94.7909L327.072 95.857L328.406 96.9354L329.73 98.0282L331.043 99.1354L332.346 100.255L333.639 101.388L334.92 102.534L336.189 103.694L337.448 104.867L338.695 106.053L339.931 107.251L341.154 108.462L342.367 109.686L343.566 110.923L344.755 112.171L345.93 113.432L347.094 114.705L348.244 115.99L349.382 117.287L350.508 118.596L351.621 119.917L352.72 121.249L353.807 122.593L354.88 123.947L355.94 125.313L356.986 126.69L358.02 128.078L359.038 129.477L360.043 130.887L361.034 132.308L362.012 133.737L362.975 135.178L363.923 136.63L364.857 138.091L365.776 139.562L366.681 141.042L367.571 142.532L368.447 144.032L369.307 145.541L370.152 147.059L370.982 148.587L371.797 150.123L372.596 151.668L373.38 153.221L374.148 154.782L374.901 156.353L375.639 157.931L376.36 159.517L377.065 161.112L377.754 162.713L378.427 164.323L379.084 165.939L379.724 167.563L380.349 169.194L380.956 170.833L381.547 172.477L382.122 174.129L382.68 175.786L383.222 177.45L383.746 179.12L384.254 180.796L384.744 182.478L385.218 184.165L385.674 185.858L386.114 187.557L386.535 189.259L386.941 190.968L387.328 192.681L387.698 194.399L388.051 196.12L388.386 197.848L388.703 199.578L389.004 201.312L389.286 203.05L389.551 204.792L389.798 206.538L390.027 208.286L390.238 210.038L390.432 211.792L390.607 213.549L390.764 215.308L390.904 217.07L391.026 218.835L391.129 220.601L391.214 222.369L391.282 224.139L391.331 225.91L391.363 227.683L391.375 229.456L391.37 231.231L391.346 233.007L391.304 234.783L391.244 236.559L391.166 238.336L391.07 240.113L390.955 241.889L390.822 243.666L390.67 245.442L390.501 247.218L390.313 248.992L390.106 250.765L389.882 252.537L389.64 254.308L389.378 256.078L389.099 257.845L388.801 259.61L388.485 261.374L388.151 263.135L387.799 264.894L387.428 266.651L387.039 268.404L386.632 270.155L386.208 271.901L385.764 273.645L385.302 275.385L384.824 277.122L384.326 278.854L383.811 280.582L383.278 282.308L382.726 284.027L382.157 285.743L381.57 287.452L380.964 289.158L380.342 290.859L379.702 292.553L379.044 294.242L378.368 295.926L377.675 297.604L376.964 299.276L376.236 300.942L375.49 302.601L374.727 304.254L373.946 305.9L373.149 307.538L372.334 309.171L371.502 310.795L370.653 312.413L369.788 314.022L368.904 315.625L368.005 317.218L367.088 318.805L366.155 320.383L365.205 321.951L364.239 323.513L363.256 325.064L362.257 326.607L361.242 328.14L360.21 329.665L359.163 331.18L358.099 332.686L357.019 334.181L355.924 335.668L354.812 337.144L353.686 338.609L352.543 340.064L351.386 341.509L350.213 342.943L349.024 344.365L347.82 345.777L346.602 347.178L345.368 348.567L344.12 349.946L342.857 351.312L341.58 352.667L340.287 354.01L338.981 355.34L337.66 356.658L336.325 357.964L334.977 359.258L333.614 360.539L332.238 361.807L330.848 363.063L329.444 364.304L328.028 365.533L326.597 366.749L325.154 367.951L323.698 369.139L322.229 370.314L320.747 371.475L319.253 372.621L317.746 373.753L316.227 374.872L314.696 375.976L313.153 377.064L311.597 378.14L310.031 379.2L308.453 380.244L306.863 381.274L305.262 382.29L303.65 383.289L302.027 384.273L300.393 385.242L298.748 386.195L297.094 387.133L295.427 388.054L293.753 388.96L292.067 389.849L290.371 390.722L288.666 391.58L286.951 392.421L285.227 393.245L283.493 394.053L281.751 394.844L280 395.619L278.24 396.376L276.471 397.117L274.695 397.841L272.91 398.547L271.117 399.236L269.315 399.909L267.507 400.563L265.69 401.2L263.867 401.819L262.037 402.422L260.198 403.006L258.354 403.573L256.503 404.122L254.646 404.652L252.782 405.165L250.913 405.66L249.036 406.136L247.155 406.595L245.269 407.035L243.375 407.457L241.478 407.86L239.576 408.246L237.669 408.612L235.757 408.96L233.841 409.289L231.921 409.6L229.997 409.893L228.068 410.166L226.136 410.42L224.201 410.656L222.262 410.872L220.32 411.07L218.376 411.249L216.429 411.409L214.48 411.55L212.528 411.671L210.573 411.774L208.617 411.858L206.66 411.922L204.7 411.967L202.74 411.993L200.778 412L198.816 411.988L196.853 411.956L194.889 411.905L192.925 411.834L190.961 411.745L188.997 411.636L187.034 411.508L185.07 411.36L183.108 411.194L181.146 411.007L179.185 410.802L177.226 410.578L175.268 410.333L173.311 410.07L171.357 409.787L169.405 409.485L167.455 409.163L165.507 408.823L163.562 408.463L161.62 408.084L159.681 407.686L157.746 407.268L155.813 406.831L153.885 406.376L151.96 405.901L150.039 405.407L148.122 404.894L146.21 404.363L144.303 403.812L142.4 403.242L140.503 402.653L138.611 402.045L136.724 401.419L134.842 400.773L132.967 400.109L131.097 399.427L129.234 398.725L127.377 398.005L125.527 397.267L123.684 396.51L121.847 395.734L120.018 394.941L118.196 394.13L116.382 393.299L114.575 392.451L112.777 391.584L110.987 390.7L109.204 389.797L107.43 388.878L105.666 387.939L103.909 386.984L102.162 386.011L100.425 385.02L98.6965 384.012L96.9776 382.986L95.2689 381.944L93.5695 380.883L91.8804 379.806L90.2027 378.711L88.5342 377.601L86.877 376.472L85.2312 375.328L83.5956 374.167L81.9715 372.989L80.3589 371.795L78.7577 370.584L77.1684 369.357L75.591 368.115L74.0256 366.855L72.4726 365.581L70.9319 364.29L69.4038 362.984L67.8884 361.663L66.386 360.325L64.8968 358.973L63.4208 357.606L61.9581 356.222L60.509 354.826L59.0737 353.413L57.6522 351.986L56.2448 350.545L54.8516 349.089L53.4727 347.619L52.1084 346.135L50.7588 344.636L49.4239 343.124L48.1039 341.598L46.7991 340.059L45.5095 338.506L44.2354 336.94L42.9767 335.361L41.7338 333.768L40.5066 332.164L39.2954 330.546L38.1002 328.915L36.9214 327.272L35.7588 325.617L34.6128 323.95L33.4834 322.272L32.3707 320.58L31.275 318.879L30.1961 317.165L29.1345 315.44L28.0901 313.704L27.0631 311.956L26.0536 310.199L25.0617 308.43L24.0875 306.652L23.1312 304.861L22.1927 303.062L21.2725 301.253L20.3702 299.434L19.4865 297.606L18.621 295.768L17.774 293.921L16.9456 292.064L16.1359 290.199L15.345 288.325L14.5731 286.443L13.82 284.552L13.086 282.653L12.3714 280.746L11.6758 278.831L10.9997 276.909L10.3429 274.98L9.70569 273.043L9.08814 271.099L8.49016 269.148L7.91206 267.191L7.35373 265.227L6.81528 263.257L6.29681 261.281L5.79843 259.299L5.32013 257.312L4.86211 255.318L4.42429 253.319L4.00675 251.316L3.60961 249.307L3.23286 247.295L2.87661 245.277L2.54095 243.255L2.22579 241.229L1.93133 239.199L1.65758 237.165L1.40462 235.127L1.17237 233.087L0.96093 231.043L0.770391 228.998L0.600761 226.948L0.452038 224.896L0.324327 222.843L0.217626 220.787L0.131934 218.729L0.0672552 216.67L0.0236887 214.609L0.00133828 212.547L0 210.484ZM199.582 59.4L199.112 19.7429L198.666 19.786L196.619 20.0039L194.576 20.2417L192.535 20.4996L190.502 20.7766L188.471 21.0739L186.442 21.391L184.419 21.7276L182.398 22.0843L180.388 22.4596L178.374 22.8558L176.375 23.2699L174.373 23.7048L172.381 24.1582L170.391 24.6318L168.411 25.1236L166.435 25.6351L164.465 26.1656L162.501 26.7153L160.546 27.2835L158.594 27.8712L156.653 28.4771L154.717 29.1023L152.791 29.7449L150.868 30.4077L148.955 31.0882L147.052 31.7867L145.154 32.5043L143.266 33.2394L141.388 33.9923L139.516 34.7645L137.653 35.5542L135.799 36.3619L133.955 37.1866L132.121 38.0293L130.297 38.8889L128.479 39.7675L126.675 40.6621L124.88 41.5742L123.095 42.5035L121.32 43.4499L119.558 44.4126L117.803 45.393L116.059 46.3905L114.331 47.4021L112.608 48.4336L110.901 49.4787L109.206 50.5401L107.519 51.619L105.845 52.7135L104.184 53.8241L102.538 54.9477L100.899 56.0912L99.2753 57.247L97.6645 58.4187L96.065 59.6065L94.48 60.8084L92.9093 62.0247L91.3479 63.2582L89.8041 64.5033L88.2715 65.7649L86.7534 67.0401L85.2487 68.3302L83.7594 69.6326L82.2812 70.9516L80.82 72.2822L79.3712 73.6282L77.9391 74.9856L76.5202 76.3576L75.117 77.742L73.7281 79.1402L72.3528 80.5527L70.9954 81.9749L69.6533 83.4094L68.3232 84.8607L67.0114 86.3212L65.7158 87.7921L64.4334 89.2783L63.1697 90.7739L61.9199 92.2829L60.687 93.8021L59.4702 95.3337L58.2693 96.8756L57.0862 98.4278L55.9184 99.9914L54.7667 101.567L53.6336 103.15L52.5156 104.747L51.4154 106.352L50.3323 107.967L49.2654 109.592L48.2165 111.227L47.1848 112.869L46.1704 114.523L45.1741 116.184L44.1943 117.856L43.232 119.537L42.2887 121.224L41.3623 122.92L40.4535 124.626L39.5633 126.339L38.6905 128.06L37.8365 129.787L37.0003 131.523L36.1825 133.266L35.3826 135.017L34.6016 136.773L33.8383 138.537L33.0936 140.308L32.3681 142.083L31.6606 143.866L30.9717 145.655L30.3017 147.45L29.6503 149.25L29.0181 151.055L28.4041 152.866L27.8093 154.682L27.2334 156.503L26.6766 158.327L26.1384 160.159L25.6196 161.992L25.1198 163.831L24.6389 165.672L24.1772 167.519L23.7347 169.368L23.3114 171.221L22.9073 173.077L22.5224 174.936L22.1568 176.797L21.8103 178.662L21.4832 180.528L21.1753 182.398L20.8869 184.268L20.6176 186.141L20.3678 188.015L20.1372 189.891L19.9259 191.767L19.7341 193.646L19.5615 195.525L19.4083 197.404L19.2744 199.284L19.1599 201.165L19.0646 203.045L18.9887 204.926L18.932 206.805L18.8948 208.685L18.8766 210.564L18.8779 212.443L18.8983 214.319L18.9379 216.196L18.9967 218.071L19.0747 219.943L19.1719 221.815L19.2881 223.683L19.4234 225.55L19.5778 227.415L19.7513 229.277L19.9435 231.137L20.1549 232.993L20.3851 234.847L20.6341 236.697L20.902 238.544L21.1887 240.388L21.494 242.226L21.8181 244.062L22.1608 245.893L22.522 247.719L22.9017 249.542L23.2999 251.359L23.7165 253.172L24.1514 254.98L24.6046 256.782L25.0761 258.579L25.5655 260.37L26.0733 262.156L26.599 263.935L27.1426 265.709L27.7041 267.477L28.2832 269.237L28.8802 270.991L29.4948 272.738L30.127 274.479L30.7765 276.211L31.4438 277.937L32.128 279.655L32.8295 281.366L33.5482 283.069L34.2839 284.763L35.0367 286.45L35.8063 288.129L36.5926 289.799L37.3956 291.46L38.2152 293.112L39.0512 294.756L39.9037 296.391L40.7723 298.016L41.6572 299.632L42.5581 301.238L43.475 302.834L44.4077 304.422L45.3562 305.998L46.3199 307.564L47.2998 309.121L48.2946 310.666L49.305 312.201L50.3305 313.726L51.3708 315.239L52.4261 316.741L53.4965 318.233L54.5813 319.713L55.6809 321.182L56.7945 322.638L57.923 324.083L59.065 325.516L60.2214 326.937L61.392 328.348L62.5757 329.744L63.7735 331.129L64.9846 332.5L66.2095 333.86L67.4473 335.206L68.6979 336.54L69.9619 337.861L71.2385 339.169L72.5282 340.463L73.83 341.744L75.1446 343.012L76.471 344.265L77.8096 345.506L79.1605 346.733L80.523 347.945L81.8964 349.143L83.2825 350.328L84.6802 351.498L86.087 352.653L87.5073 353.796L88.9369 354.922L90.3777 356.034L91.8289 357.132L93.2914 358.214L94.7632 359.282L96.2453 360.334L97.7366 361.371L99.2393 362.394L100.75 363.4L102.272 364.392L103.802 365.369L105.342 366.329L106.891 367.274L108.447 368.203L110.013 369.117L111.587 370.014L113.17 370.896L114.76 371.761L116.36 372.611L117.966 373.444L119.579 374.262L121.202 375.062L122.831 375.847L124.467 376.615L126.109 377.367L127.758 378.102L129.415 378.821L131.078 379.522L132.747 380.208L134.422 380.876L136.103 381.527L137.79 382.163L139.481 382.781L141.178 383.381L142.882 383.965L144.589 384.533L146.302 385.083L148.018 385.616L149.741 386.132L151.466 386.63L153.197 387.111L154.931 387.576L156.668 388.023L158.41 388.452L160.154 388.864L161.903 389.26L163.653 389.637L165.406 389.997L167.163 390.34L168.923 390.666L170.684 390.974L172.447 391.264L174.212 391.537L175.98 391.792L177.749 392.03L179.519 392.252L181.29 392.455L183.063 392.64L184.836 392.809L186.611 392.959L188.385 393.093L190.16 393.209L191.935 393.308L193.71 393.388L195.485 393.452L197.259 393.498L199.034 393.526L200.806 393.537L202.579 393.531L204.35 393.507L206.12 393.467L207.888 393.409L209.655 393.333L211.421 393.241L213.183 393.13L214.944 393.004L216.703 392.86L218.459 392.698L220.212 392.519L221.963 392.323L223.71 392.111L225.455 391.881L227.195 391.634L228.933 391.37L230.666 391.09L232.396 390.792L234.123 390.478L235.844 390.148L237.56 389.8L239.273 389.436L240.981 389.056L242.683 388.658L244.382 388.244L246.074 387.815L247.761 387.368L249.442 386.905L251.119 386.426L252.788 385.931L254.452 385.42L256.11 384.894L257.762 384.35L259.406 383.791L261.043 383.217L262.675 382.625L264.3 382.02L265.917 381.398L267.526 380.761L269.128 380.109L270.722 379.441L272.309 378.758L273.888 378.059L275.458 377.347L277.021 376.618L278.576 375.875L280.12 375.118L281.658 374.344L283.186 373.557L284.705 372.756L286.216 371.939L287.715 371.109L289.207 370.264L290.688 369.406L292.161 368.533L293.622 367.647L295.076 366.746L296.517 365.832L297.949 364.904L299.371 363.963L300.783 363.007L302.182 362.041L303.571 361.059L304.95 360.065L306.318 359.059L307.675 358.038L309.019 357.007L310.355 355.961L311.677 354.904L312.987 353.835L314.287 352.752L315.575 351.657L316.849 350.552L318.113 349.434L319.363 348.305L320.602 347.164L321.829 346.011L323.041 344.848L324.243 343.672L325.431 342.485L326.607 341.288L327.769 340.08L328.918 338.863L330.053 337.635L331.177 336.393L332.286 335.144L333.382 333.884L334.464 332.615L335.533 331.335L336.588 330.046L337.628 328.747L338.656 327.438L339.668 326.122L340.668 324.794L341.652 323.459L342.623 322.114L343.581 320.76L344.52 319.4L345.448 318.029L346.36 316.652L347.258 315.264L348.142 313.869L349.01 312.468L349.862 311.059L350.702 309.639L351.524 308.216L352.332 306.783L353.126 305.344L353.903 303.899L354.666 302.445L355.414 300.985L356.144 299.523L356.861 298.049L357.562 296.57L358.247 295.087L358.917 293.597L359.571 292.102L360.208 290.602L360.831 289.094L361.438 287.582L362.028 286.069L362.603 284.545L363.161 283.02L363.705 281.489L364.232 279.954L364.743 278.414L365.236 276.874L365.716 275.323L366.178 273.774L366.624 272.22L367.054 270.663L367.468 269.101L367.865 267.538L368.247 265.971L368.611 264.4L368.961 262.828L369.293 261.252L369.608 259.677L369.908 258.095L370.191 256.517L370.458 254.933L370.708 253.348L370.942 251.763L371.16 250.175L371.361 248.588L371.547 246.995L371.715 245.408L371.867 243.815L372.002 242.226L372.121 240.632L372.224 239.043L372.311 237.45L372.381 235.856L372.434 234.265L372.473 232.678L372.493 231.085L372.498 229.494L372.487 227.906L372.459 226.319L372.415 224.732L372.354 223.151L372.278 221.563L372.185 219.983L372.076 218.403L371.951 216.828L371.81 215.25L371.654 213.68L371.481 212.108L371.291 210.541L371.086 208.976L370.866 207.415L370.628 205.854L370.376 204.299L370.108 202.75L369.824 201.2L369.523 199.655L369.208 198.116L368.876 196.577L368.531 195.048L368.167 193.517L367.792 191.997L367.397 190.475L366.989 188.964L366.566 187.455L366.127 185.949L365.674 184.452L365.205 182.961L364.72 181.471L364.223 179.991L363.708 178.513L363.181 177.045L362.637 175.579L362.08 174.124L361.506 172.67L360.919 171.225L360.318 169.789L359.703 168.36L359.071 166.932L358.429 165.518L357.769 164.105L357.098 162.705L356.412 161.31L355.71 159.921L354.998 158.543L354.27 157.171L353.527 155.805L352.775 154.453L352.006 153.103L351.225 151.765L350.429 150.434L349.624 149.115L348.801 147.8L347.968 146.497L347.121 145.2L346.262 143.915L345.392 142.641L344.506 141.372L343.609 140.114L342.7 138.866L341.779 137.629L340.845 136.399L339.9 135.181L338.943 133.972L337.974 132.774L336.993 131.587L336.001 130.408L334.996 129.241L333.982 128.085L332.957 126.939L331.92 125.804L330.869 124.678L329.814 123.568L328.741 122.464L327.662 121.375L326.572 120.295L325.472 119.228L324.357 118.169L323.239 117.126L322.106 116.092L320.964 115.071L319.815 114.062L318.655 113.065L317.482 112.077L316.303 111.104L315.116 110.143L313.918 109.194L312.711 108.257L311.497 107.335L310.271 106.421L309.04 105.524L307.799 104.638L306.549 103.763L305.293 102.903L304.024 102.053L302.755 101.221L301.472 100.398L300.185 99.5897L298.887 98.7935L297.584 98.0107L296.274 97.2423L294.959 96.4883L293.631 95.7436L292.304 95.0165L290.965 94.3006L289.621 93.5992L288.271 92.9122L286.914 92.2375L285.551 91.5763L284.184 90.9305L282.809 90.297L281.431 89.679L280.045 89.0734L278.611 88.4636L277.261 87.9064L275.858 87.3419L274.456 86.795L273.043 86.2584L271.63 85.7393L270.21 85.2325L268.788 84.7412L267.36 84.2622L265.93 83.7998L264.494 83.3507L263.055 82.916L261.616 82.4968L260.17 82.0906L258.718 81.6984L257.269 81.3221L255.817 80.9602L254.356 80.6115L252.899 80.2789L251.436 79.9596L249.972 79.6558L248.504 79.3657L247.037 79.0909L245.566 78.8303L244.096 78.5849L242.62 78.3531L241.147 78.1367L239.671 77.9346L238.193 77.7471L236.715 77.5742L235.237 77.4162L233.758 77.2727L232.278 77.1437L230.797 77.0293L229.315 76.9294L227.837 76.8443L226.358 76.7737L224.874 76.7176L223.398 76.6762L221.919 76.6492L220.441 76.6368L218.961 76.6389L218.664 76.6423L219.131 116.011L219.97 116.007L221.051 116.013L222.131 116.03L223.212 116.057L224.295 116.095L225.377 116.145L226.46 116.205L227.543 116.275L228.627 116.356L229.71 116.448L230.794 116.551L231.876 116.664L232.96 116.789L234.042 116.924L235.124 117.069L236.205 117.226L237.285 117.393L238.365 117.571L239.444 117.761L240.522 117.961L241.598 118.172L242.673 118.393L243.747 118.625L244.819 118.868L245.89 119.123L246.959 119.387L248.025 119.662L249.09 119.949L250.152 120.245L251.213 120.553L252.272 120.872L253.328 121.2L254.38 121.54L255.431 121.89L256.479 122.252L257.524 122.624L258.566 123.006L259.604 123.398L260.64 123.802L261.672 124.216L262.701 124.64L263.726 125.076L264.748 125.521L265.765 125.977L266.779 126.443L267.788 126.92L268.794 127.407L269.795 127.904L270.792 128.412L271.785 128.93L272.773 129.458L273.756 129.996L274.735 130.544L275.708 131.103L276.677 131.671L277.641 132.25L278.599 132.838L279.552 133.437L280.499 134.045L281.442 134.663L282.378 135.291L283.309 135.928L284.234 136.576L285.153 137.232L286.065 137.898L286.972 138.575L287.873 139.26L288.766 139.955L289.654 140.66L290.534 141.373L291.409 142.096L292.276 142.828L293.137 143.569L293.991 144.318L294.837 145.078L295.677 145.846L296.508 146.623L297.333 147.408L298.149 148.203L298.959 149.006L299.761 149.818L300.555 150.639L301.342 151.467L302.12 152.304L302.89 153.15L303.652 154.004L304.406 154.865L305.152 155.735L305.889 156.613L306.619 157.498L307.339 158.392L308.05 159.294L308.753 160.203L309.447 161.12L310.132 162.045L310.807 162.976L311.475 163.915L312.132 164.862L312.781 165.816L313.419 166.777L314.049 167.744L314.669 168.719L315.279 169.701L315.881 170.689L316.472 171.683L317.053 172.686L317.624 173.693L318.186 174.708L318.737 175.728L319.279 176.755L319.81 177.788L320.33 178.828L320.841 179.873L321.341 180.924L321.831 181.979L322.31 183.042L322.778 184.109L323.237 185.183L323.684 186.261L324.12 187.345L324.546 188.433L324.96 189.526L325.363 190.625L325.756 191.728L326.138 192.837L326.509 193.949L326.867 195.067L327.215 196.187L327.552 197.313L327.877 198.443L328.192 199.577L328.493 200.715L328.785 201.856L329.064 203.002L329.332 204.15L329.588 205.303L329.832 206.458L330.065 207.617L330.285 208.779L330.495 209.945L330.692 211.113L330.878 212.283L331.051 213.457L331.212 214.632L331.362 215.811L331.5 216.992L331.624 218.176L331.738 219.36L331.84 220.548L331.928 221.736L332.005 222.927L332.069 224.119L332.122 225.313L332.162 226.508L332.19 227.704L332.205 228.902L332.208 230.101L332.199 231.3L332.177 232.5L332.143 233.701L332.097 234.903L332.038 236.104L331.967 237.306L331.884 238.509L331.788 239.711L331.679 240.913L331.558 242.115L331.425 243.316L331.279 244.518L331.121 245.718L330.95 246.918L330.766 248.117L330.571 249.315L330.363 250.511L330.141 251.707L329.909 252.902L329.662 254.095L329.404 255.287L329.134 256.476L328.851 257.664L328.555 258.849L328.247 260.034L327.927 261.215L327.594 262.395L327.249 263.571L326.892 264.745L326.522 265.917L326.139 267.086L325.744 268.251L325.338 269.414L324.919 270.574L324.488 271.729L324.044 272.882L323.589 274.032L323.121 275.177L322.641 276.319L322.149 277.456L321.645 278.59L321.129 279.72L320.601 280.845L320.061 281.966L319.509 283.082L318.945 284.193L318.369 285.301L317.782 286.402L317.183 287.499L316.572 288.591L315.95 289.677L315.315 290.758L314.67 291.834L314.013 292.903L313.344 293.968L312.663 295.026L311.972 296.079L311.269 297.124L310.555 298.164L309.83 299.199L309.094 300.225L308.346 301.246L307.588 302.261L306.818 303.268L306.038 304.268L305.247 305.261L304.444 306.248L303.632 307.226L302.809 308.199L301.975 309.163L301.13 310.12L300.275 311.068L299.41 312.01L298.535 312.943L297.65 313.869L296.754 314.786L295.849 315.695L294.932 316.595L294.007 317.488L293.071 318.372L292.126 319.246L291.172 320.114L290.207 320.971L289.233 321.819L288.25 322.66L287.258 323.49L286.256 324.312L285.245 325.124L284.225 325.926L283.196 326.719L282.159 327.503L281.112 328.276L280.057 329.041L278.994 329.796L277.922 330.539L276.841 331.274L275.751 331.998L274.655 332.712L273.549 333.415L272.437 334.108L271.316 334.79L270.188 335.463L269.051 336.124L267.907 336.774L266.756 337.414L265.597 338.043L264.431 338.661L263.258 339.268L262.078 339.863L260.892 340.447L259.698 341.021L258.497 341.582L257.29 342.132L256.077 342.671L254.857 343.198L253.631 343.713L252.399 344.217L251.161 344.709L249.917 345.189L248.667 345.658L247.412 346.114L246.151 346.558L244.884 346.99L243.613 347.41L242.336 347.817L241.055 348.212L239.769 348.595L238.477 348.965L237.181 349.323L235.881 349.669L234.576 350.001L233.267 350.322L231.954 350.63L230.635 350.924L229.315 351.206L227.989 351.475L226.661 351.732L225.329 351.976L223.993 352.206L222.654 352.424L221.313 352.628L219.968 352.819L218.62 352.997L217.27 353.163L215.917 353.315L214.562 353.454L213.205 353.579L211.845 353.692L210.484 353.791L209.12 353.876L207.754 353.948L206.387 354.007L205.019 354.052L203.649 354.084L202.278 354.103L200.905 354.108L199.532 354.1L198.159 354.077L196.784 354.042L195.409 353.992L194.034 353.93L192.658 353.853L191.283 353.764L189.908 353.661L188.533 353.543L187.158 353.413L185.783 353.268L184.409 353.111L183.036 352.94L181.663 352.754L180.292 352.556L178.922 352.343L177.553 352.118L176.186 351.878L174.82 351.626L173.456 351.359L172.095 351.078L170.734 350.784L169.377 350.477L168.021 350.156L166.668 349.821L165.318 349.473L163.97 349.111L162.625 348.736L161.284 348.348L159.945 347.946L158.609 347.531L157.277 347.102L155.95 346.66L154.624 346.205L153.304 345.736L151.987 345.254L150.674 344.759L149.366 344.25L148.062 343.729L146.763 343.193L145.468 342.645L144.178 342.085L142.894 341.51L141.614 340.923L140.34 340.323L139.071 339.711L137.807 339.084L136.549 338.446L135.297 337.795L134.051 337.13L132.811 336.454L131.577 335.765L130.349 335.062L129.128 334.348L127.914 333.621L126.706 332.882L125.505 332.131L124.311 331.366L123.125 330.591L121.945 329.802L120.773 329.002L119.608 328.19L118.452 327.366L117.302 326.53L116.161 325.682L115.027 324.822L113.902 323.95L112.786 323.068L111.678 322.173L110.578 321.267L109.486 320.35L108.404 319.422L107.33 318.481L106.266 317.53L105.21 316.568L104.164 315.596L103.127 314.612L102.099 313.617L101.082 312.612L100.075 311.597L99.0766 310.57L98.0878 309.534L97.1094 308.486L96.1423 307.429L95.1845 306.361L94.2369 305.284L93.3007 304.196L92.3738 303.099L91.4592 301.992L90.5539 300.874L89.6609 299.749L88.7783 298.612L87.9069 297.467L87.0469 296.312L86.1972 295.15L85.3599 293.976L84.5349 292.795L83.7203 291.604L82.9179 290.405L82.1276 289.198L81.349 287.982L80.5825 286.757L79.8281 285.524L79.086 284.283L78.3561 283.035L77.6387 281.777L76.9337 280.513L76.2414 279.24L75.5617 277.961L74.8947 276.673L74.2406 275.379L73.5995 274.077L72.9713 272.768L72.3563 271.452L71.7544 270.129L71.1657 268.8L70.5903 267.464L70.0284 266.121L69.4799 264.773L68.945 263.418L68.4237 262.057L67.916 260.69L67.4221 259.318L66.942 257.939L66.4759 256.555L66.0236 255.166L65.5854 253.771L65.1613 252.373L64.7512 250.968L64.3554 249.559L63.9738 248.145L63.6067 246.725L63.2538 245.303L62.9153 243.875L62.5914 242.443L62.2819 241.008L61.987 239.569L61.7068 238.126L61.4411 236.679L61.1902 235.228L60.9542 233.775L60.7328 232.319L60.5263 230.859L60.3348 229.396L60.1581 227.931L59.9964 226.463L59.8497 224.993L59.718 223.52L59.6014 222.045L59.4998 220.569L59.4133 219.09L59.342 217.61L59.2859 216.129L59.245 214.646L59.2193 213.162L59.2087 211.675L59.2136 210.189L59.2336 208.702L59.269 207.214L59.3196 205.726L59.3856 204.237L59.467 202.748L59.5636 201.259L59.6756 199.771L59.8029 198.281L59.9457 196.794L60.1039 195.306L60.2773 193.819L60.4662 192.333L60.6704 190.848L60.89 189.363L61.125 187.881L61.3753 186.4L61.641 184.921L61.9221 183.443L62.2185 181.967L62.5302 180.494L62.8573 179.022L63.1996 177.553L63.5572 176.087L63.9301 174.623L64.3183 173.163L64.7216 171.704L65.1401 170.25L65.5739 168.798L66.0228 167.35L66.4869 165.905L66.966 164.465L67.4602 163.028L67.9695 161.596L68.4937 160.167L69.0329 158.743L69.587 157.323L70.156 155.908L70.7399 154.498L71.3386 153.093L71.952 151.692L72.5803 150.298L73.2231 148.908L73.8806 147.524L74.5526 146.146L75.2393 144.774L75.9403 143.407L76.6558 142.047L77.3856 140.693L78.1299 139.346L78.8883 138.005L79.6609 136.67L80.4476 135.343L81.2485 134.023L82.0633 132.709L82.8922 131.403L83.7347 130.104L84.5916 128.814L85.4608 127.53L86.3456 126.255L87.2426 124.987L88.1531 123.728L89.078 122.477L90.0152 121.234L90.9669 120L91.9309 118.774L92.9083 117.558L93.8981 116.351L94.9012 115.152L95.9178 113.962L96.9467 112.782L97.9879 111.612L99.0426 110.451L100.109 109.299L101.188 108.158L102.28 107.026L103.383 105.906L104.498 104.794L105.626 103.693L106.766 102.603L107.918 101.523L109.08 100.455L110.255 99.396L111.442 98.3496L112.639 97.3134L113.848 96.2885L115.068 95.275L116.299 94.2728L117.541 93.282L118.795 92.3035L120.058 91.3363L121.332 90.3815L122.618 89.438L123.912 88.5069L125.217 87.5881L126.534 86.6817L127.859 85.7877L129.194 84.907L130.54 84.0377L131.894 83.1818L133.259 82.3386L134.633 81.5083L136.016 80.6911L137.408 79.8871L138.809 79.0963L140.219 78.3187L141.638 77.5548L143.065 76.8043L144.501 76.0675L145.945 75.3443L147.397 74.6349L148.857 73.9395L150.326 73.258L151.802 72.5906L153.286 71.9373L154.777 71.2983L156.276 70.6736L157.782 70.0632L159.294 69.4673L160.814 68.886L162.34 68.3193L163.874 67.7673L165.414 67.2301L166.96 66.7076L168.512 66.2002L170.069 65.7077L171.633 65.2302L173.203 64.7678L174.779 64.3207L176.359 63.8887L177.945 63.4721L179.536 63.0708L181.132 62.685L182.733 62.3147L184.339 61.9598L185.948 61.6205L187.562 61.2968L189.181 60.989L190.804 60.6968L192.43 60.4203L194.06 60.1597L195.694 59.915L197.33 59.6862L198.97 59.4733L199.582 59.4ZM200.274 117.792L199.802 77.9905L198.458 78.1783L197.013 78.395L195.567 78.626L194.13 78.8702L192.691 79.1293L191.26 79.4018L189.831 79.6882L188.408 79.9881L186.988 80.3021L185.57 80.6301L184.157 80.9715L182.75 81.3264L181.345 81.6956L179.994 82.0642L178.556 82.4731L177.166 82.882L175.783 83.3043L174.407 83.739L173.034 84.1881L171.666 84.6506L170.305 85.1254L168.95 85.6126L167.601 86.1142L166.258 86.6271L164.92 87.1545L163.593 87.6932L162.265 88.2463L160.948 88.8107L159.637 89.3875L158.335 89.9767L157.036 90.5792L155.745 91.1941L154.464 91.8194L153.186 92.459L151.921 93.1089L150.659 93.7733L149.408 94.4459L148.16 95.1349L146.924 95.8312L145.697 96.5409L144.475 97.2629L143.263 97.9952L142.057 98.741L140.863 99.4949L139.675 100.262L138.497 101.04L137.328 101.828L136.168 102.628L135.014 103.44L133.874 104.259L132.74 105.092L131.615 105.934L130.501 106.787L129.397 107.649L128.3 108.524L127.215 109.407L126.14 110.3L125.073 111.205L124.02 112.117L122.973 113.04L121.937 113.974L120.912 114.915L119.899 115.866L118.893 116.828L117.901 117.796L116.918 118.774L115.945 119.763L114.984 120.759L114.033 121.766L113.094 122.779L112.166 123.801L111.248 124.832L110.341 125.872L109.449 126.918L108.565 127.973L107.693 129.037L106.833 130.108L105.985 131.185L105.147 132.273L104.322 133.365L103.508 134.467L102.707 135.575L101.917 136.69L101.141 137.811L100.375 138.94L99.6214 140.076L98.8799 141.218L98.1517 142.366L97.4359 143.52L96.7314 144.683L96.0393 145.849L95.3606 147.022L94.6932 148.202L94.0402 149.384L93.3985 150.575L92.7682 151.772L92.1534 152.97L91.5498 154.178L90.9597 155.389L90.3819 156.603L89.8175 157.825L89.2654 159.05L88.7268 160.279L88.2005 161.513L87.6886 162.751L87.1891 163.994L86.7019 165.241L86.2281 166.491L85.7688 167.745L85.3208 169.003L84.8882 170.263L84.467 171.528L84.0601 172.796L83.6657 174.067L83.2856 175.34L82.9179 176.616L82.5647 177.894L82.2239 179.177L81.8968 180.46L81.5831 181.747L81.283 183.035L80.9962 184.325L80.7227 185.617L80.4631 186.911L80.2166 188.206L79.9837 189.504L79.7644 190.801L79.5583 192.101L79.366 193.4L79.1869 194.702L79.0215 196.004L78.8695 197.307L78.7309 198.61L78.6059 199.914L78.4944 201.218L78.3963 202.521L78.3117 203.826L78.2404 205.13L78.1826 206.433L78.1383 207.736L78.1073 209.037L78.0898 210.339L78.0856 211.641L78.0948 212.941L78.1173 214.24L78.1532 215.538L78.2022 216.834L78.2646 218.129L78.3402 219.423L78.429 220.714L78.531 222.004L78.6462 223.292L78.7745 224.577L78.9159 225.86L79.0703 227.142L79.2379 228.421L79.4183 229.696L79.6118 230.97L79.8181 232.239L80.0374 233.507L80.2696 234.772L80.5144 236.032L80.7721 237.29L81.0423 238.544L81.3255 239.795L81.6208 241.041L81.9292 242.284L82.2499 243.523L82.5832 244.758L82.9282 245.988L83.2867 247.214L83.6564 248.436L84.0395 249.653L84.434 250.867L84.8408 252.074L85.26 253.276L85.6905 254.474L86.1334 255.667L86.5886 256.854L87.0552 258.036L87.5331 259.212L88.0233 260.383L88.5249 261.548L89.0388 262.707L89.5631 263.86L90.0997 265.007L90.6476 266.148L91.2058 267.283L91.7764 268.411L92.3573 269.534L92.9495 270.649L93.553 271.757L94.1669 272.859L94.792 273.954L95.4275 275.042L96.0743 276.122L96.7314 277.197L97.3988 278.263L98.0765 279.322L98.7655 280.374L99.4628 281.417L100.172 282.454L100.89 283.482L101.619 284.502L102.358 285.515L103.107 286.519L103.865 287.515L104.633 288.504L105.41 289.484L106.197 290.455L106.993 291.418L107.798 292.373L108.613 293.317L109.437 294.256L110.269 295.183L111.11 296.102L111.96 297.012L112.819 297.913L113.686 298.805L114.563 299.688L115.446 300.561L116.339 301.425L117.24 302.28L118.148 303.125L119.066 303.961L119.989 304.786L120.921 305.602L121.862 306.409L122.809 307.205L123.764 307.992L124.726 308.767L125.695 309.534L126.672 310.29L127.655 311.036L128.646 311.772L129.642 312.497L130.645 313.212L131.655 313.916L132.672 314.61L133.696 315.294L134.725 315.967L135.76 316.629L136.801 317.281L137.847 317.922L138.9 318.552L139.959 319.171L141.022 319.779L142.092 320.376L143.165 320.962L144.245 321.538L145.33 322.103L146.419 322.655L147.513 323.198L148.613 323.728L149.716 324.248L150.824 324.756L151.937 325.253L153.052 325.739L154.173 326.212L155.298 326.676L156.426 327.127L157.557 327.567L158.693 327.995L159.832 328.412L160.975 328.818L162.12 329.212L163.269 329.595L164.421 329.965L165.575 330.324L166.733 330.671L167.893 331.007L169.054 331.331L170.219 331.644L171.386 331.945L172.555 332.234L173.726 332.511L174.899 332.777L176.074 333.031L177.251 333.273L178.428 333.503L179.608 333.721L180.787 333.928L181.97 334.124L183.152 334.306L184.336 334.478L185.52 334.638L186.704 334.786L187.89 334.922L189.075 335.047L190.262 335.159L191.448 335.26L192.635 335.348L193.821 335.427L195.007 335.492L196.192 335.546L197.379 335.588L198.563 335.619L199.746 335.638L200.93 335.645L202.112 335.641L203.294 335.624L204.474 335.598L205.652 335.559L206.83 335.508L208.005 335.445L209.18 335.372L210.352 335.287L211.523 335.19L212.691 335.082L213.858 334.962L215.022 334.831L216.184 334.689L217.344 334.536L218.501 334.372L219.655 334.196L220.807 334.008L221.954 333.811L223.1 333.601L224.242 333.38L225.382 333.149L226.519 332.906L227.649 332.653L228.778 332.389L229.903 332.113L231.025 331.828L232.142 331.531L233.255 331.223L234.365 330.905L235.47 330.576L236.57 330.238L237.666 329.887L238.758 329.527L239.845 329.156L240.927 328.775L242.005 328.384L243.077 327.982L244.144 327.57L245.206 327.148L246.263 326.715L247.315 326.273L248.36 325.821L249.402 325.359L250.436 324.888L251.466 324.406L252.489 323.914L253.505 323.415L254.518 322.903L255.523 322.384L256.523 321.853L257.513 321.316L258.5 320.768L259.481 320.211L260.453 319.644L261.42 319.068L262.38 318.484L263.332 317.891L264.279 317.288L265.216 316.679L266.148 316.059L267.074 315.429L267.991 314.793L268.899 314.149L269.804 313.494L270.698 312.834L271.585 312.163L272.466 311.484L273.335 310.799L274.201 310.104L275.058 309.402L275.904 308.693L276.746 307.973L277.578 307.249L278.4 306.518L279.218 305.775L280.024 305.029L280.823 304.274L281.614 303.512L282.395 302.744L283.168 301.967L283.933 301.184L284.689 300.394L285.435 299.598L286.173 298.795L286.904 297.985L287.622 297.17L288.335 296.346L289.037 295.518L289.729 294.684L290.414 293.841L291.087 292.997L291.753 292.143L292.409 291.285L293.055 290.42L293.692 289.551L294.318 288.677L294.937 287.794L295.545 286.91L296.143 286.019L296.733 285.122L297.31 284.222L297.881 283.316L298.44 282.404L298.99 281.49L299.529 280.57L300.06 279.644L300.578 278.718L301.089 277.783L301.588 276.846L302.077 275.906L302.558 274.959L303.025 274.013L303.486 273.057L303.933 272.104L304.373 271.141L304.8 270.18L305.219 269.211L305.627 268.243L306.023 267.271L306.411 266.294L306.788 265.315L307.152 264.335L307.509 263.349L307.853 262.363L308.188 261.374L308.513 260.382L308.827 259.387L309.131 258.391L309.423 257.394L309.705 256.393L309.976 255.392L310.238 254.387L310.488 253.382L310.728 252.377L310.958 251.366L311.176 250.357L311.385 249.347L311.582 248.336L311.769 247.324L311.945 246.307L312.111 245.295L312.267 244.279L312.411 243.262L312.545 242.248L312.668 241.231L312.782 240.211L312.884 239.199L312.976 238.178L313.058 237.162L313.128 236.147L313.189 235.129L313.238 234.114L313.277 233.099L313.306 232.082L313.323 231.07L313.332 230.055L313.329 229.042L313.316 228.03L313.293 227.021L313.259 226.011L313.214 225.002L313.16 223.998L313.095 222.991L313.02 221.987L312.935 220.988L312.839 219.985L312.733 218.989L312.617 217.991L312.491 216.998L312.355 216.006L312.209 215.016L312.053 214.029L311.887 213.045L311.711 212.064L311.524 211.085L311.327 210.106L311.121 209.133L310.906 208.164L310.681 207.196L310.445 206.23L310.201 205.272L309.945 204.311L309.682 203.358L309.408 202.406L309.124 201.461L308.832 200.516L308.529 199.576L308.218 198.642L307.898 197.711L307.566 196.78L307.228 195.859L306.879 194.939L306.522 194.025L306.155 193.114L305.779 192.206L305.395 191.307L305.001 190.409L304.599 189.518L304.188 188.632L303.768 187.748L303.338 186.87L302.903 185.999L302.456 185.131L302.002 184.271L301.54 183.416L301.068 182.562L300.59 181.719L300.102 180.878L299.607 180.045L299.102 179.215L298.592 178.394L298.071 177.575L297.545 176.766L297.009 175.961L296.467 175.163L295.914 174.369L295.356 173.583L294.792 172.804L294.217 172.029L293.637 171.262L293.048 170.501L292.455 169.748L291.851 168.999L291.242 168.259L290.625 167.524L290.002 166.796L289.372 166.077L288.734 165.362L288.091 164.657L287.44 163.956L286.785 163.266L286.12 162.579L285.451 161.903L284.774 161.23L284.092 160.568L283.405 159.913L282.711 159.264L282.009 158.622L281.303 157.99L280.591 157.364L279.871 156.744L279.151 156.137L278.421 155.532L277.687 154.938L276.947 154.352L276.202 153.771L275.452 153.2L274.699 152.639L273.937 152.083L273.169 151.534L272.402 150.997L271.625 150.464L270.848 149.944L270.064 149.429L269.275 148.923L268.481 148.424L267.686 147.936L266.883 147.454L266.078 146.982L265.267 146.516L264.456 146.062L263.638 145.615L262.817 145.175L261.992 144.745L261.165 144.325L260.332 143.911L259.496 143.506L258.659 143.11L257.819 142.724L256.971 142.344L256.126 141.975L255.275 141.615L254.421 141.261L253.565 140.918L252.708 140.585L251.847 140.259L250.981 139.941L250.116 139.634L249.247 139.334L248.376 139.044L247.506 138.763L246.631 138.491L245.757 138.227L244.875 137.972L243.997 137.726L243.116 137.49L242.233 137.262L241.35 137.043L240.462 136.832L239.576 136.632L238.69 136.44L237.8 136.257L236.909 136.082L236.022 135.918L235.129 135.761L234.238 135.614L233.343 135.475L232.453 135.346L231.556 135.225L230.665 135.114L229.771 135.011L228.877 134.918L227.984 134.833L227.089 134.757L226.198 134.69L225.302 134.632L224.41 134.583L223.52 134.543L222.624 134.511L221.736 134.488L220.846 134.475L219.957 134.47L219.349 134.472L219.81 173.358L220.085 173.359L220.595 173.367L221.107 173.379L221.62 173.395L222.133 173.419L222.647 173.447L223.161 173.48L223.676 173.519L224.191 173.563L224.707 173.613L225.223 173.667L225.739 173.727L226.256 173.793L226.772 173.864L227.289 173.94L227.806 174.023L228.323 174.11L228.839 174.203L229.356 174.302L229.872 174.405L230.388 174.515L230.904 174.629L231.42 174.75L231.934 174.875L232.449 175.006L232.963 175.143L233.476 175.285L233.989 175.433L234.501 175.586L235.011 175.745L235.521 175.91L236.031 176.08L236.539 176.255L237.047 176.435L237.552 176.621L238.057 176.813L238.561 177.01L239.063 177.213L239.564 177.421L240.063 177.634L240.562 177.853L241.058 178.078L241.554 178.307L242.047 178.543L242.538 178.783L243.028 179.029L243.516 179.282L244.002 179.538L244.486 179.801L244.968 180.069L245.448 180.342L245.926 180.62L246.4 180.903L246.874 181.192L247.345 181.487L247.813 181.787L248.279 182.091L248.742 182.401L249.204 182.717L249.662 183.037L250.117 183.363L250.571 183.693L251.021 184.029L251.468 184.37L251.912 184.716L252.353 185.067L252.791 185.424L253.226 185.784L253.658 186.151L254.087 186.522L254.512 186.898L254.934 187.279L255.353 187.665L255.768 188.055L256.179 188.451L256.587 188.852L256.991 189.256L257.392 189.666L257.789 190.08L258.182 190.5L258.571 190.924L258.956 191.352L259.338 191.785L259.715 192.223L260.088 192.665L260.458 193.111L260.823 193.562L261.183 194.017L261.539 194.476L261.892 194.941L262.24 195.409L262.583 195.881L262.921 196.357L263.255 196.838L263.585 197.323L263.909 197.813L264.23 198.305L264.546 198.802L264.856 199.303L265.162 199.808L265.462 200.316L265.758 200.828L266.049 201.344L266.335 201.865L266.616 202.388L266.892 202.915L267.162 203.446L267.428 203.979L267.687 204.517L267.941 205.059L268.191 205.602L268.435 206.15L268.674 206.701L268.907 207.256L269.134 207.813L269.356 208.373L269.572 208.937L269.783 209.503L269.988 210.073L270.187 210.645L270.38 211.22L270.568 211.798L270.749 212.379L270.925 212.962L271.095 213.548L271.259 214.137L271.418 214.727L271.57 215.32L271.715 215.917L271.855 216.515L271.989 217.115L272.117 217.718L272.238 218.323L272.353 218.929L272.462 219.538L272.565 220.149L272.662 220.761L272.751 221.376L272.835 221.992L272.912 222.61L272.983 223.23L273.048 223.851L273.106 224.473L273.157 225.097L273.202 225.723L273.24 226.35L273.272 226.978L273.297 227.607L273.317 228.238L273.328 228.869L273.334 229.502L273.332 230.134L273.325 230.768L273.311 231.404L273.289 232.039L273.261 232.676L273.226 233.313L273.185 233.95L273.136 234.588L273.081 235.226L273.019 235.865L272.951 236.503L272.875 237.142L272.792 237.782L272.704 238.421L272.608 239.06L272.505 239.699L272.395 240.337L272.279 240.976L272.155 241.614L272.025 242.252L271.887 242.889L271.743 243.526L271.593 244.163L271.434 244.798L271.269 245.434L271.098 246.067L270.919 246.7L270.734 247.332L270.541 247.963L270.342 248.594L270.136 249.222L269.923 249.85L269.704 250.476L269.476 251.101L269.242 251.725L269.002 252.346L268.755 252.967L268.501 253.585L268.24 254.202L267.972 254.817L267.697 255.431L267.416 256.042L267.128 256.65L266.832 257.258L266.532 257.863L266.223 258.465L265.907 259.066L265.585 259.663L265.256 260.258L264.922 260.852L264.58 261.442L264.231 262.03L263.876 262.614L263.514 263.197L263.146 263.776L262.771 264.352L262.389 264.925L262.002 265.495L261.607 266.062L261.207 266.626L260.799 267.186L260.386 267.743L259.966 268.296L259.539 268.846L259.107 269.393L258.668 269.936L258.223 270.475L257.772 271.011L257.315 271.542L256.85 272.069L256.38 272.593L255.905 273.113L255.423 273.628L254.935 274.139L254.441 274.646L253.942 275.149L253.436 275.647L252.925 276.141L252.407 276.63L251.884 277.114L251.355 277.594L250.821 278.07L250.281 278.541L249.735 279.006L249.184 279.467L248.627 279.923L248.065 280.374L247.497 280.819L246.925 281.26L246.347 281.696L245.763 282.126L245.175 282.551L244.581 282.97L243.982 283.385L243.378 283.793L242.769 284.197L242.155 284.593L241.536 284.986L240.912 285.372L240.284 285.752L239.65 286.126L239.013 286.495L238.37 286.857L237.722 287.213L237.071 287.565L236.415 287.909L235.755 288.248L235.09 288.579L234.421 288.906L233.748 289.225L233.07 289.538L232.389 289.845L231.703 290.145L231.014 290.439L230.321 290.727L229.624 291.007L228.922 291.281L228.218 291.549L227.509 291.809L226.798 292.064L226.083 292.311L225.364 292.551L224.642 292.785L223.917 293.01L223.189 293.23L222.457 293.443L221.722 293.648L220.985 293.847L220.244 294.037L219.501 294.222L218.754 294.398L218.005 294.568L217.253 294.729L216.499 294.885L215.742 295.032L214.983 295.172L214.222 295.305L213.458 295.431L212.693 295.548L211.924 295.658L211.155 295.761L210.383 295.857L209.609 295.945L208.834 296.024L208.056 296.097L207.277 296.161L206.497 296.219L205.714 296.267L204.931 296.309L204.146 296.343L203.361 296.369L202.573 296.387L201.785 296.397L200.996 296.4L200.206 296.395L199.415 296.381L198.623 296.36L197.831 296.331L197.038 296.294L196.244 296.249L195.45 296.196L194.655 296.135L193.861 296.066L193.066 295.989L192.272 295.905L191.477 295.811L190.683 295.71L189.888 295.601L189.094 295.484L188.3 295.359L187.507 295.226L186.714 295.085L185.922 294.935L185.13 294.779L184.339 294.613L183.549 294.44L182.76 294.258L181.972 294.068L181.184 293.871L180.398 293.665L179.614 293.451L178.831 293.23L178.05 293L177.269 292.762L176.491 292.516L175.714 292.263L174.938 292.001L174.166 291.731L173.395 291.453L172.625 291.167L171.859 290.873L171.094 290.571L170.332 290.261L169.571 289.944L168.814 289.618L168.059 289.285L167.307 288.944L166.558 288.595L165.81 288.237L165.067 287.873L164.326 287.5L163.589 287.12L162.854 286.731L162.123 286.336L161.395 285.932L160.671 285.521L159.949 285.102L159.232 284.676L158.518 284.242L157.809 283.8L157.102 283.351L156.4 282.895L155.701 282.43L155.007 281.958L154.318 281.479L153.632 280.993L152.95 280.5L152.274 279.998L151.601 279.491L150.934 278.975L150.27 278.452L149.612 277.923L148.958 277.386L148.309 276.842L147.666 276.291L147.027 275.733L146.394 275.169L145.766 274.597L145.142 274.018L144.524 273.433L143.913 272.841L143.305 272.242L142.705 271.637L142.109 271.025L141.519 270.406L140.935 269.782L140.357 269.149L139.786 268.512L139.219 267.868L138.66 267.217L138.106 266.561L137.558 265.898L137.017 265.228L136.483 264.553L135.954 263.873L135.432 263.186L134.917 262.492L134.409 261.794L133.908 261.09L133.413 260.379L132.924 259.663L132.443 258.942L131.97 258.215L131.503 257.483L131.043 256.745L130.59 256.002L130.145 255.254L129.707 254.501L129.276 253.742L128.853 252.978L128.437 252.21L128.029 251.436L127.628 250.658L127.235 249.875L126.85 249.088L126.473 248.295L126.103 247.499L125.742 246.697L125.388 245.892L125.042 245.081L124.704 244.268L124.375 243.449L124.054 242.627L123.74 241.8L123.437 240.97L123.14 240.135L122.852 239.298L122.571 238.456L122.301 237.611L122.038 236.762L121.784 235.91L121.537 235.054L121.3 234.195L121.073 233.333L120.852 232.468L120.642 231.6L120.44 230.729L120.247 229.855L120.063 228.978L119.887 228.099L119.721 227.217L119.563 226.332L119.415 225.445L119.276 224.556L119.145 223.665L119.023 222.771L118.912 221.875L118.809 220.978L118.715 220.078L118.631 219.177L118.556 218.273L118.49 217.369L118.433 216.463L118.386 215.555L118.348 214.647L118.319 213.736L118.3 212.825L118.291 211.913L118.29 211L118.299 210.085L118.319 209.17L118.347 208.255L118.385 207.338L118.432 206.421L118.489 205.505L118.555 204.587L118.631 203.669L118.716 202.751L118.811 201.834L118.916 200.916L119.031 199.998L119.154 199.081L119.288 198.165L119.431 197.248L119.585 196.332L119.746 195.417L119.918 194.502L120.101 193.589L120.292 192.676L120.493 191.764L120.703 190.854L120.924 189.945L121.153 189.037L121.393 188.131L121.642 187.226L121.901 186.323L122.169 185.421L122.447 184.521L122.734 183.623L123.031 182.727L123.338 181.834L123.654 180.942L123.979 180.053L124.314 179.166L124.659 178.283L125.013 177.401L125.377 176.521L125.75 175.646L126.132 174.772L126.524 173.902L126.925 173.035L127.336 172.171L127.755 171.311L128.185 170.453L128.622 169.599L129.07 168.749L129.527 167.902L129.993 167.06L130.468 166.22L130.952 165.385L131.445 164.555L131.948 163.728L132.459 162.905L132.98 162.087L133.509 161.272L134.047 160.463L134.594 159.658L135.15 158.858L135.714 158.063L136.288 157.273L136.87 156.487L137.46 155.706L138.06 154.932L138.667 154.161L139.284 153.397L139.909 152.637L140.542 151.884L141.183 151.135L141.833 150.392L142.491 149.656L143.158 148.925L143.832 148.201L144.515 147.482L145.206 146.769L145.905 146.062L146.611 145.362L147.326 144.668L148.048 143.981L148.778 143.3L149.516 142.625L150.26 141.958L151.013 141.296L151.774 140.643L152.541 139.996L153.317 139.356L154.099 138.723L154.889 138.097L155.685 137.479L156.489 136.868L157.3 136.265L158.118 135.669L158.943 135.08L159.774 134.499L160.612 133.926L161.458 133.36L162.308 132.803L163.166 132.254L164.031 131.712L164.902 131.179L165.779 130.653L166.662 130.136L167.552 129.628L168.447 129.127L169.348 128.635L170.255 128.152L171.168 127.677L172.087 127.21L173.01 126.753L173.94 126.304L174.876 125.864L175.816 125.432L176.761 125.01L177.712 124.597L178.669 124.192L179.63 123.797L180.595 123.412L181.566 123.035L182.541 122.667L183.521 122.308L184.505 121.96L185.495 121.62L186.488 121.291L187.486 120.97L188.487 120.659L189.493 120.359L190.503 120.067L191.516 119.786L192.534 119.514L193.554 119.251L194.579 118.999L195.607 118.757L196.639 118.525L197.673 118.303L198.711 118.091L199.752 117.889L200.274 117.792ZM213.065 192.573L201.194 195.41L200.496 136.602L199.937 136.727L199.094 136.926L198.253 137.133L197.418 137.347L196.584 137.57L195.754 137.801L194.925 138.041L194.104 138.286L193.282 138.541L192.469 138.802L191.654 139.073L190.845 139.351L190.039 139.636L189.237 139.929L188.442 140.228L187.648 140.537L186.858 140.853L186.073 141.175L185.289 141.507L184.516 141.842L183.742 142.188L182.976 142.54L182.211 142.9L181.453 143.266L180.697 143.64L179.949 144.02L179.204 144.407L178.465 144.802L177.731 145.202L177 145.61L176.275 146.025L175.558 146.445L174.841 146.875L174.132 147.309L173.43 147.749L172.731 148.196L172.037 148.651L171.35 149.111L170.668 149.578L169.992 150.049L169.322 150.527L168.656 151.012L167.997 151.504L167.344 152L166.696 152.503L166.055 153.01L165.421 153.524L164.79 154.044L164.166 154.57L163.55 155.099L162.94 155.636L162.335 156.177L161.737 156.724L161.145 157.277L160.56 157.834L159.981 158.395L159.407 158.964L158.842 159.536L158.282 160.114L157.73 160.694L157.182 161.284L156.644 161.874L156.111 162.47L155.585 163.072L155.067 163.675L154.554 164.286L154.05 164.898L153.551 165.518L153.061 166.139L152.575 166.766L152.099 167.398L151.629 168.031L151.165 168.669L150.71 169.31L150.261 169.957L149.819 170.606L149.386 171.26L148.959 171.915L148.54 172.574L148.127 173.239L147.723 173.904L147.325 174.576L146.936 175.246L146.552 175.923L146.176 176.602L145.81 177.283L145.449 177.966L145.097 178.653L144.751 179.345L144.414 180.035L144.084 180.731L143.761 181.427L143.447 182.127L143.139 182.828L142.84 183.533L142.548 184.237L142.264 184.946L141.988 185.655L141.718 186.367L141.457 187.079L141.204 187.795L140.958 188.512L140.72 189.23L140.489 189.948L140.267 190.671L140.051 191.393L139.845 192.115L139.646 192.84L139.453 193.566L139.27 194.292L139.094 195.019L138.925 195.747L138.764 196.477L138.612 197.207L138.466 197.936L138.328 198.666L138.199 199.399L138.077 200.129L137.963 200.86L137.856 201.594L137.757 202.324L137.666 203.057L137.583 203.788L137.507 204.52L137.439 205.253L137.378 205.984L137.325 206.715L137.28 207.446L137.242 208.175L137.212 208.905L137.189 209.633L137.175 210.362L137.167 211.089L137.168 211.815L137.175 212.541L137.19 213.266L137.213 213.989L137.243 214.711L137.28 215.432L137.325 216.151L137.378 216.869L137.438 217.585L137.504 218.3L137.579 219.015L137.66 219.725L137.749 220.436L137.844 221.143L137.948 221.851L138.059 222.554L138.176 223.257L138.301 223.958L138.432 224.655L138.571 225.352L138.717 226.044L138.87 226.736L139.03 227.424L139.197 228.111L139.37 228.793L139.551 229.476L139.737 230.152L139.931 230.829L140.132 231.501L140.339 232.171L140.553 232.838L140.773 233.5L141.001 234.162L141.235 234.819L141.475 235.472L141.721 236.124L141.974 236.772L142.234 237.416L142.5 238.057L142.77 238.693L143.05 239.328L143.334 239.958L143.624 240.584L143.921 241.206L144.223 241.824L144.533 242.441L144.846 243.051L145.166 243.658L145.493 244.261L145.825 244.86L146.163 245.455L146.506 246.046L146.855 246.631L147.211 247.214L147.57 247.792L147.936 248.365L148.307 248.935L148.683 249.499L149.065 250.06L149.452 250.613L149.844 251.166L150.242 251.711L150.643 252.252L151.052 252.79L151.464 253.321L151.881 253.848L152.304 254.37L152.731 254.888L153.162 255.399L153.599 255.907L154.04 256.409L154.485 256.906L154.937 257.398L155.39 257.883L155.85 258.366L156.313 258.842L156.78 259.313L157.252 259.778L157.728 260.239L158.208 260.694L158.692 261.143L159.18 261.587L159.673 262.026L160.168 262.458L160.668 262.886L161.17 263.308L161.677 263.724L162.188 264.135L162.703 264.54L163.219 264.939L163.74 265.332L164.264 265.72L164.792 266.103L165.322 266.479L165.855 266.849L166.392 267.214L166.932 267.572L167.473 267.925L168.018 268.272L168.568 268.614L169.118 268.947L169.671 269.277L170.229 269.6L170.786 269.917L171.346 270.228L171.911 270.534L172.477 270.832L173.044 271.125L173.614 271.411L174.188 271.692L174.76 271.966L175.338 272.235L175.916 272.498L176.495 272.753L177.078 273.004L177.662 273.248L178.246 273.486L178.833 273.717L179.421 273.942L180.012 274.161L180.601 274.374L181.195 274.582L181.787 274.781L182.382 274.976L182.978 275.165L183.575 275.347L184.173 275.522L184.771 275.692L185.372 275.855L185.972 276.012L186.573 276.163L187.174 276.308L187.776 276.446L188.378 276.578L188.982 276.704L189.585 276.824L190.189 276.938L190.792 277.045L191.397 277.147L192.001 277.242L192.606 277.332L193.208 277.414L193.813 277.49L194.417 277.561L195.021 277.626L195.625 277.684L196.228 277.736L196.831 277.783L197.432 277.823L198.035 277.857L198.635 277.885L199.235 277.907L199.836 277.923L200.433 277.933L201.031 277.937L201.628 277.935L202.223 277.928L202.82 277.914L203.414 277.894L204.005 277.869L204.596 277.837L205.189 277.8L205.776 277.757L206.364 277.709L206.949 277.654L207.534 277.594L208.117 277.527L208.697 277.456L209.277 277.379L209.854 277.296L210.429 277.207L211.005 277.113L211.576 277.013L212.146 276.908L212.714 276.797L213.281 276.681L213.843 276.559L214.403 276.432L214.964 276.3L215.521 276.162L216.075 276.019L216.627 275.871L217.176 275.718L217.725 275.558L218.269 275.394L218.808 275.225L219.35 275.05L219.886 274.871L220.419 274.688L220.95 274.498L221.477 274.303L222.003 274.104L222.526 273.9L223.044 273.691L223.56 273.477L224.072 273.258L224.583 273.034L225.088 272.807L225.593 272.574L226.092 272.337L226.588 272.095L227.082 271.849L227.57 271.599L228.057 271.343L228.54 271.083L229.019 270.819L229.494 270.551L229.967 270.278L230.435 270.001L230.899 269.72L231.359 269.435L231.817 269.145L232.27 268.853L232.72 268.555L233.165 268.254L233.607 267.948L234.044 267.639L234.477 267.327L234.906 267.01L235.332 266.69L235.753 266.365L236.17 266.038L236.584 265.706L236.992 265.372L237.397 265.034L237.796 264.692L238.192 264.347L238.584 263.999L238.971 263.647L239.355 263.293L239.732 262.935L240.106 262.574L240.476 262.209L240.842 261.842L241.202 261.473L241.558 261.099L241.909 260.724L242.257 260.344L242.598 259.964L242.937 259.579L243.269 259.191L243.597 258.803L243.922 258.41L244.24 258.016L244.555 257.618L244.865 257.22L245.169 256.818L245.469 256.413L245.764 256.009L246.054 255.599L246.341 255.188L246.621 254.777L246.897 254.361L247.169 253.944L247.433 253.526L247.695 253.106L247.951 252.684L248.203 252.259L248.45 251.834L248.691 251.407L248.928 250.978L249.16 250.546L249.386 250.116L249.608 249.682L249.825 249.248L250.037 248.812L250.244 248.373L250.446 247.935L250.643 247.496L250.834 247.056L251.022 246.613L251.203 246.171L251.381 245.725L251.552 245.283L251.72 244.834L251.881 244.392L252.038 243.943L252.191 243.494L252.337 243.047L252.479 242.598L252.616 242.15L252.749 241.697L252.875 241.25L252.998 240.795L253.115 240.348L253.227 239.895L253.334 239.442L253.436 238.992L253.533 238.543L253.625 238.088L253.713 237.637L253.795 237.183L253.873 236.734L253.946 236.283L254.014 235.831L254.077 235.379L254.134 234.928L254.188 234.478L254.236 234.03L254.279 233.578L254.319 233.13L254.353 232.681L254.381 232.233L254.406 231.786L254.426 231.34L254.44 230.896L254.45 230.449L254.457 230.003L254.458 229.561L254.453 229.119L254.445 228.679L254.432 228.239L254.414 227.797L254.392 227.363L254.365 226.92L254.334 226.489L254.298 226.055L254.258 225.618L254.212 225.187L254.164 224.759L254.109 224.326L254.052 223.901L253.989 223.474L253.923 223.053L253.851 222.627L253.776 222.205L253.696 221.787L253.613 221.37L253.524 220.951L253.432 220.538L253.336 220.125L253.235 219.715L253.131 219.309L253.021 218.899L252.91 218.497L252.792 218.091L252.672 217.693L252.547 217.294L252.418 216.898L252.285 216.504L252.148 216.11L252.009 215.723L251.865 215.337L251.717 214.95L251.566 214.569L251.41 214.185L251.252 213.812L251.089 213.434L250.924 213.062L250.754 212.693L250.581 212.324L250.405 211.96L250.225 211.597L250.041 211.237L249.855 210.88L249.664 210.526L249.472 210.175L249.275 209.825L249.074 209.479L248.872 209.136L248.666 208.796L248.456 208.458L248.244 208.125L248.029 207.793L247.81 207.465L247.589 207.138L247.365 206.817L247.138 206.496L246.908 206.18L246.675 205.867L246.44 205.557L246.203 205.25L245.961 204.945L245.718 204.646L245.471 204.348L245.223 204.053L244.972 203.762L244.72 203.474L244.463 203.19L244.205 202.909L243.944 202.63L243.681 202.356L243.416 202.085L243.148 201.816L242.879 201.552L242.607 201.292L242.334 201.034L242.056 200.779L241.78 200.529L241.5 200.28L241.219 200.037L240.935 199.796L240.649 199.56L240.362 199.327L240.074 199.097L239.783 198.87L239.491 198.647L239.197 198.428L238.901 198.212L238.604 198L238.306 197.792L238.006 197.586L237.706 197.385L237.403 197.187L237.098 196.993L236.794 196.802L236.486 196.615L236.179 196.431L235.871 196.252L235.561 196.076L235.249 195.903L234.938 195.734L234.626 195.568L234.312 195.406L233.999 195.249L233.682 195.093L233.367 194.943L233.049 194.797L232.732 194.652L232.414 194.512L232.094 194.375L231.776 194.244L231.455 194.115L231.134 193.989L230.813 193.868L230.492 193.749L230.171 193.635L229.848 193.524L229.526 193.415L229.205 193.312L228.881 193.212L228.558 193.115L228.236 193.022L227.911 192.932L227.59 192.847L227.266 192.765L226.943 192.685L226.619 192.61L226.297 192.538L225.974 192.47L225.651 192.405L225.33 192.343L225.009 192.286L224.685 192.231L224.366 192.18L224.043 192.133L223.724 192.089L223.403 192.048L223.084 192.011L222.767 191.977L222.447 191.947L222.13 191.919L221.813 191.895L221.497 191.875L221.18 191.857L220.865 191.844L220.553 191.833L220.239 191.825L219.927 191.821L219.615 191.82L219.305 191.823L218.995 191.828L218.687 191.836L218.379 191.849L218.074 191.863L217.767 191.882L217.464 191.902L217.162 191.926L216.86 191.954L216.56 191.984L216.259 192.017L215.963 192.053L215.666 192.092L215.372 192.134L215.077 192.179L214.786 192.227L214.494 192.277L214.207 192.331L213.917 192.388L213.632 192.446L213.347 192.508L213.065 192.573Z" fill="white" fill-opacity="0.6"/>
</svg>
