<svg width="2156" height="203" viewBox="0 0 2156 203" fill="none" xmlns="http://www.w3.org/2000/svg">
<path d="M102.067 142.871C102.067 137.914 100.852 133.929 98.422 130.916C95.9918 127.806 92.6867 125.279 88.5067 123.336C84.3266 121.392 79.612 119.837 74.3629 118.671C69.2111 117.407 63.7673 116.192 58.0326 115.026C50.4502 113.373 43.2084 111.43 36.3067 109.195C29.405 106.862 23.3296 103.703 18.0804 99.718C12.8313 95.6359 8.65141 90.4849 5.54076 84.2645C2.43017 78.0447 0.87484 70.2693 0.87484 60.9389C0.87484 50.6366 2.67318 41.695 6.26981 34.1141C9.86649 26.436 14.7268 20.1186 20.8508 15.1618C27.0721 10.1079 34.3139 6.36603 42.5765 3.93625C50.9363 1.40927 60.3165 0.145786 70.7179 0.145786C81.1188 0.145786 91.5687 1.16629 102.067 3.20732C112.565 5.24829 121.606 7.8725 129.188 11.0798V41.695C119.078 37.7102 109.357 34.8431 100.026 33.0936C90.7911 31.247 82.0911 30.3236 73.9257 30.3236C62.1637 30.3236 53.0748 32.4619 46.6592 36.7383C40.3408 41.0147 37.1816 47.4293 37.1816 55.982C37.1816 60.9389 38.2022 65.021 40.2435 68.2282C42.3821 71.4355 45.2497 74.1083 48.8463 76.2467C52.443 78.2877 56.5742 79.94 61.2404 81.2036C65.906 82.4665 70.8637 83.6333 76.1128 84.7022C84.3756 86.4518 92.249 88.4929 99.7341 90.8253C107.316 93.0604 114.024 96.2193 119.856 100.301C125.688 104.383 130.306 109.729 133.708 116.338C137.11 122.849 138.811 131.208 138.811 141.413C138.811 151.91 136.867 160.997 132.979 168.675C129.09 176.353 123.55 182.72 116.356 187.773C109.26 192.73 100.609 196.423 90.4023 198.853C80.1955 201.283 69.0164 202.498 56.8656 202.498C46.2704 202.498 35.8206 201.429 25.5167 199.29C15.3101 197.249 6.80445 194.334 0 190.543V160.366C9.62347 164.545 19.0039 167.607 28.1413 169.55C37.2787 171.397 46.7078 172.32 56.4284 172.32C62.0664 172.32 67.6069 171.883 73.0508 171.008C78.4946 170.036 83.3549 168.432 87.6317 166.197C92.0059 163.962 95.5057 160.948 98.13 157.158C100.755 153.27 102.067 148.508 102.067 142.871ZM258.23 198.853H222.506V33.6768H159.516V3.79043H321.073V33.6768H258.23V198.853ZM384.501 168.967H480.444V198.853H348.777V3.79043H475.195V33.6768H384.501V84.1188H462.364V114.005H384.501V168.967ZM662.851 62.3965C662.851 76.0036 659.058 87.5691 651.48 97.0941C643.996 106.522 632.38 113.519 616.631 118.087V118.671L674.664 198.853H631.795L578.72 123.336H554.224V198.853H518.5V3.79043H577.845C587.663 3.79043 596.802 4.3736 605.259 5.53988C613.716 6.609 620.955 8.26124 626.981 10.4966C638.454 14.8702 647.299 21.3821 653.522 30.0321C659.739 38.5849 662.851 49.3732 662.851 62.3965ZM571.867 93.4492C580.032 93.4492 586.934 93.1094 592.574 92.4286C598.307 91.6512 603.121 90.5339 607.009 89.0757C614.2 86.3545 619.157 82.6612 621.88 77.9957C624.699 73.2335 626.109 67.7911 626.109 61.668C626.109 56.4197 624.992 51.8029 622.752 47.8181C620.614 43.7361 616.923 40.5287 611.674 38.1961C608.269 36.6411 603.993 35.5234 598.839 34.8431C593.691 34.0655 587.323 33.6768 579.741 33.6768H554.224V93.4492H571.867ZM741.734 3.79043V168.967H833.01V198.853H706.013V3.79043H741.734ZM866.694 198.853V3.79043H902.415V198.853H866.694ZM1050.85 94.4697C1064.85 114.394 1076.22 132.083 1084.97 147.536H1085.84C1084.68 122.169 1084.09 103.703 1084.09 92.1372V3.79043H1119.82V198.853H1082.34L1018.77 109.048C1007.59 93.4981 996.026 75.4692 984.069 54.9616H983.197C984.362 78.8705 984.947 97.3855 984.947 110.507V198.853H949.22V3.79043H986.697L1050.85 94.4697ZM1287.79 124.356H1244.05V94.4697H1323.52V192.876C1320.6 193.945 1316.86 195.063 1312.29 196.229C1307.82 197.396 1302.76 198.416 1297.12 199.29C1291.59 200.262 1285.85 201.04 1279.92 201.623C1273.99 202.206 1268.11 202.498 1262.27 202.498C1244.78 202.498 1229.47 200.165 1216.35 195.5C1203.32 190.738 1192.43 184.08 1183.68 175.528C1175.04 166.975 1168.52 156.818 1164.15 145.058C1159.87 133.2 1157.73 120.128 1157.73 105.841C1157.73 95.7332 1158.85 86.1115 1161.08 76.9752C1163.42 67.7422 1166.77 59.2382 1171.15 51.4627C1175.62 43.5902 1181.01 36.4953 1187.33 30.1779C1193.65 23.8605 1200.84 18.4663 1208.91 13.9955C1217.08 9.52473 1225.97 6.12305 1235.6 3.79043C1245.31 1.36067 1255.72 0.145786 1266.8 0.145786C1276.61 0.145786 1285.95 0.874719 1294.79 2.33257C1303.64 3.69328 1310.88 5.39412 1316.52 7.43515V37.7588C1308.94 35.329 1301.26 33.4824 1293.48 32.2189C1285.8 30.9554 1278.02 30.3236 1270.15 30.3236C1259.56 30.3236 1249.64 31.9273 1240.4 35.1346C1231.17 38.2447 1223.15 42.9099 1216.35 49.1302C1209.64 55.2532 1204.34 62.8342 1200.45 71.8732C1196.57 80.9115 1194.62 91.3598 1194.62 103.217C1194.72 126.251 1200.75 143.551 1212.7 155.117C1224.66 166.586 1241.62 172.32 1263.59 172.32C1267.67 172.32 1271.9 172.126 1276.27 171.737C1280.65 171.251 1284.49 170.667 1287.79 169.987V124.356ZM1401.38 3.93625C1417.71 3.93625 1430.4 4.66518 1439.43 6.12305C1448.48 7.4837 1456.64 10.3995 1463.93 14.8702C1471.22 19.2439 1476.52 24.5408 1479.82 30.761C1483.13 36.9812 1484.78 44.465 1484.78 53.2122C1484.78 77.3156 1472.53 92.2346 1448.04 97.9689V98.5517C1462.13 98.8437 1473.16 102.974 1481.14 110.944C1489.11 118.816 1493.09 129.799 1493.09 143.892C1493.09 154.194 1490.18 163.767 1484.35 172.612C1478.61 181.359 1470.88 187.919 1461.16 192.293C1451.54 196.667 1436.08 198.853 1414.8 198.853H1370.03V3.93625H1401.38ZM1470.35 53.7954C1470.35 44.8537 1468.36 37.6616 1464.37 32.2189C1460.48 26.679 1454.45 22.5484 1446.29 19.827C1438.13 17.0085 1425.15 15.5992 1407.36 15.5992H1382.86V93.1578H1422.96C1433.94 93.1578 1442.84 91.6512 1449.64 88.6386C1456.45 85.5281 1461.6 81.0089 1465.1 75.0804C1468.6 69.0541 1470.35 61.9594 1470.35 53.7954ZM1478.8 143.892C1478.8 133.784 1476.37 125.474 1471.52 118.962C1466.75 112.353 1458.54 108.125 1446.87 106.279C1441.52 105.501 1433.65 105.113 1423.25 105.113H1382.86V187.19H1416.69C1430.78 187.19 1442.5 185.781 1451.83 182.963C1461.16 180.144 1467.97 175.138 1472.25 167.946C1476.62 160.657 1478.8 152.639 1478.8 143.892ZM1539.17 3.93625H1552V187.19H1650.86V198.853H1539.17V3.93625ZM1689.35 129.313V3.93625H1702.19V134.707C1702.19 152.299 1707.24 166.051 1717.35 175.965C1727.56 185.878 1741.8 190.835 1760.07 190.835C1778.54 190.835 1792.83 186.073 1802.94 176.548C1813.05 166.926 1818.11 152.979 1818.11 134.707V3.93625H1830.93V129.313C1830.93 178.103 1807.22 202.498 1759.78 202.498C1736.25 202.498 1718.61 196.229 1706.85 183.691C1695.19 171.057 1689.35 152.931 1689.35 129.313ZM1882.4 3.93625H1993.51V15.5992H1895.24V93.1578H1985.2V104.821H1895.24V187.19H1999.2V198.853H1882.4V3.93625ZM2036.53 192.001V178.006C2041.29 180.922 2049.07 183.74 2059.86 186.461C2070.65 189.183 2079.59 190.543 2086.69 190.543C2104.18 190.543 2117.75 187.288 2127.37 180.776C2137.09 174.264 2141.95 163.184 2141.95 147.536C2141.95 139.664 2140.3 133.152 2136.99 128.001C2133.78 122.849 2129.36 118.719 2123.72 115.609C2118.09 112.499 2107.97 108.952 2093.4 104.966C2080.76 101.759 2070.6 98.6007 2062.92 95.4902C2055.24 92.2829 2048.78 87.375 2043.53 80.7658C2038.28 74.0599 2035.66 65.0693 2035.66 53.7954C2035.66 37.5644 2041.48 24.5408 2053.15 14.7245C2064.91 4.90816 2080.27 0 2099.23 0C2111.67 0 2123.82 1.79806 2135.68 5.39412C2140.44 7.14357 2144.72 8.94156 2148.51 10.7882V24.7838C2142.58 22.0624 2137.48 19.8756 2133.2 18.2234C2129.02 16.4739 2123.92 14.9675 2117.89 13.704C2111.96 12.4405 2105.45 11.7601 2098.35 11.6629C2081.54 11.6629 2069.04 15.5506 2060.88 23.3259C2052.81 31.1012 2048.78 41.4521 2048.78 54.3785C2048.78 62.5428 2050.53 68.9573 2054.03 73.6222C2057.62 78.2877 2062.44 81.8837 2068.46 84.4108C2074.49 86.9373 2083.48 89.8532 2095.43 93.1578C2108.85 96.8511 2119.35 100.301 2126.93 103.509C2134.51 106.619 2141.07 111.673 2146.62 118.671C2152.25 125.571 2155.07 134.998 2155.07 146.953C2155.07 164.448 2149.05 178.103 2136.99 187.919C2125.03 197.638 2107.97 202.498 2085.81 202.498C2076.67 202.498 2067.15 201.283 2057.23 198.853C2047.32 196.423 2040.42 194.139 2036.53 192.001Z" fill="white" fill-opacity="0.6"/>
</svg>
