<svg width="1402" height="398" viewBox="0 0 1402 398" fill="none" xmlns="http://www.w3.org/2000/svg">
<rect y="159.2" width="79.6401" height="79.5999" fill="white" fill-opacity="0.6"/>
<rect x="238.92" y="238.8" width="79.6402" height="79.5999" transform="rotate(180 238.92 238.8)" fill="white" fill-opacity="0.6"/>
<path opacity="0.4" d="M79.6411 159.2L159.281 79.5998V159.2L79.6411 238.8V159.2Z" fill="white" fill-opacity="0.6"/>
<path opacity="0.6" d="M159.28 238.8L79.6402 318.4L79.6402 238.8L159.28 159.2L159.28 238.8Z" fill="white" fill-opacity="0.6"/>
<path opacity="0.8" d="M0 159.2L159.28 0V79.5999L79.6401 159.2H0Z" fill="white" fill-opacity="0.6"/>
<path opacity="0.8" d="M238.92 238.8L79.6401 398L79.6401 318.4L159.28 238.8L238.92 238.8Z" fill="white" fill-opacity="0.6"/>
<path d="M412.371 284.238C399.827 284.238 387.671 282.458 375.902 278.899C364.288 275.339 355.074 270.618 348.26 264.736L358.713 241.288C365.372 246.55 373.502 250.884 383.103 254.289C392.859 257.539 402.615 259.164 412.371 259.164C424.449 259.164 433.431 257.23 439.316 253.36C445.355 249.491 448.375 244.383 448.375 238.037C448.375 233.394 446.671 229.602 443.264 226.661C440.012 223.565 435.831 221.166 430.721 219.464C425.611 217.761 418.642 215.827 409.816 213.66C397.427 210.719 387.361 207.778 379.619 204.837C372.031 201.897 365.449 197.331 359.874 191.14C354.454 184.794 351.745 176.281 351.745 165.601C351.745 156.624 354.145 148.498 358.945 141.224C363.901 133.794 371.256 127.913 381.012 123.579C390.923 119.245 403.002 117.078 417.249 117.078C427.159 117.078 436.915 118.317 446.516 120.793C456.117 123.269 464.402 126.829 471.371 131.473L461.847 154.922C454.724 150.743 447.291 147.57 439.548 145.403C431.805 143.236 424.295 142.152 417.016 142.152C405.092 142.152 396.188 144.164 390.304 148.189C384.574 152.213 381.709 157.553 381.709 164.208C381.709 168.852 383.335 172.644 386.587 175.584C389.994 178.525 394.252 180.847 399.363 182.549C404.473 184.252 411.442 186.187 420.268 188.354C432.347 191.14 442.258 194.08 450.001 197.176C457.743 200.117 464.325 204.683 469.745 210.874C475.32 217.065 478.107 225.423 478.107 235.948C478.107 244.925 475.629 253.051 470.674 260.325C465.873 267.6 458.518 273.404 448.607 277.738C438.696 282.071 426.617 284.238 412.371 284.238Z" fill="white" fill-opacity="0.6"/>
<path d="M505.262 157.94H534.298V281.917H505.262V157.94ZM519.896 137.509C514.631 137.509 510.218 135.884 506.656 132.634C503.094 129.228 501.314 125.049 501.314 120.097C501.314 115.144 503.094 111.042 506.656 107.792C510.218 104.387 514.631 102.684 519.896 102.684C525.161 102.684 529.575 104.309 533.137 107.56C536.698 110.655 538.479 114.602 538.479 119.4C538.479 124.508 536.698 128.841 533.137 132.401C529.73 135.806 525.316 137.509 519.896 137.509Z" fill="white" fill-opacity="0.6"/>
<path d="M610.734 283.542C600.668 283.542 590.835 282.226 581.234 279.595C571.633 276.964 563.967 273.636 558.238 269.612L569.387 247.556C574.962 251.271 581.621 254.289 589.364 256.611C597.261 258.777 605.004 259.861 612.592 259.861C629.936 259.861 638.608 255.295 638.608 246.163C638.608 241.829 636.363 238.811 631.872 237.109C627.536 235.406 620.49 233.781 610.734 232.233C600.513 230.685 592.151 228.905 585.647 226.893C579.298 224.881 573.723 221.399 568.923 216.446C564.277 211.338 561.954 204.296 561.954 195.319C561.954 183.555 566.832 174.191 576.588 167.226C586.499 160.107 599.817 156.547 616.541 156.547C625.058 156.547 633.575 157.553 642.092 159.565C650.609 161.422 657.578 163.976 662.998 167.226L651.848 189.282C641.318 183.091 629.472 179.996 616.309 179.996C607.792 179.996 601.288 181.311 596.797 183.942C592.461 186.419 590.293 189.747 590.293 193.926C590.293 198.569 592.616 201.897 597.261 203.909C602.062 205.766 609.418 207.546 619.328 209.249C629.239 210.796 637.369 212.576 643.718 214.588C650.067 216.6 655.487 220.006 659.978 224.804C664.624 229.602 666.947 236.412 666.947 245.234C666.947 256.843 661.914 266.129 651.848 273.094C641.783 280.059 628.078 283.542 610.734 283.542Z" fill="white" fill-opacity="0.6"/>
<path d="M805.825 157.94L747.754 291.9C742.334 305.366 735.753 314.807 728.01 320.224C720.267 325.796 710.899 328.582 699.904 328.582C693.71 328.582 687.593 327.576 681.553 325.564C675.514 323.552 670.559 320.766 666.687 317.206L678.301 295.847C681.089 298.478 684.341 300.567 688.057 302.115C691.929 303.663 695.8 304.437 699.671 304.437C704.782 304.437 708.963 303.121 712.215 300.49C715.622 297.859 718.719 293.448 721.506 287.257L723.597 282.381L669.475 157.94H699.671L738.695 249.646L777.951 157.94H805.825Z" fill="white" fill-opacity="0.6"/>
<path d="M892.728 156.547C904.807 156.547 915.57 159.178 925.016 164.44C934.617 169.703 942.128 177.132 947.548 186.728C952.967 196.325 955.678 207.391 955.678 219.928C955.678 232.465 952.967 243.609 947.548 253.36C942.128 262.956 934.617 270.386 925.016 275.648C915.57 280.911 904.807 283.542 892.728 283.542C876.004 283.542 862.764 277.97 853.008 266.826V326.957H823.972V157.94H851.614V174.191C856.415 168.31 862.299 163.899 869.268 160.958C876.391 158.017 884.211 156.547 892.728 156.547ZM889.477 258.7C900.162 258.7 908.911 255.14 915.725 248.02C922.693 240.901 926.177 231.537 926.177 219.928C926.177 208.32 922.693 198.956 915.725 191.836C908.911 184.716 900.162 181.156 889.477 181.156C882.508 181.156 876.236 182.782 870.662 186.032C865.087 189.127 860.673 193.616 857.421 199.498C854.169 205.379 852.543 212.189 852.543 219.928C852.543 227.667 854.169 234.477 857.421 240.359C860.673 246.24 865.087 250.806 870.662 254.057C876.236 257.152 882.508 258.7 889.477 258.7Z" fill="white" fill-opacity="0.6"/>
<path d="M1053.6 156.547C1069.24 156.547 1081.78 161.113 1091.23 170.245C1100.67 179.376 1105.4 192.919 1105.4 210.874V281.917H1076.36V214.588C1076.36 203.754 1073.8 195.628 1068.69 190.211C1063.58 184.639 1056.31 181.853 1046.86 181.853C1036.17 181.853 1027.74 185.103 1021.54 191.604C1015.35 197.95 1012.25 207.159 1012.25 219.232V281.917H983.214V109.649H1012.25V172.334C1017.05 167.226 1022.93 163.357 1029.9 160.726C1037.03 157.94 1044.92 156.547 1053.6 156.547Z" fill="white" fill-opacity="0.6"/>
<path d="M1262.32 157.94V281.917H1234.68V266.129C1230.03 271.701 1224.23 276.035 1217.26 279.131C1210.29 282.071 1202.78 283.542 1194.72 283.542C1178.16 283.542 1165.07 278.976 1155.47 269.844C1146.02 260.557 1141.3 246.86 1141.3 228.751V157.94H1170.34V224.804C1170.34 235.948 1172.81 244.306 1177.77 249.878C1182.88 255.295 1190.08 258.004 1199.37 258.004C1209.75 258.004 1217.95 254.831 1223.99 248.485C1230.19 241.984 1233.28 232.697 1233.28 220.625V157.94H1262.32Z" fill="white" fill-opacity="0.6"/>
<path d="M1338.66 283.542C1328.6 283.542 1318.76 282.226 1309.16 279.595C1299.56 276.964 1291.9 273.636 1286.17 269.612L1297.32 247.556C1302.89 251.271 1309.55 254.289 1317.29 256.611C1325.19 258.777 1332.93 259.861 1340.52 259.861C1357.87 259.861 1366.54 255.295 1366.54 246.163C1366.54 241.829 1364.29 238.811 1359.8 237.109C1355.46 235.406 1348.42 233.781 1338.66 232.233C1328.44 230.685 1320.08 228.905 1313.58 226.893C1307.23 224.881 1301.65 221.399 1296.85 216.446C1292.21 211.338 1289.88 204.296 1289.88 195.319C1289.88 183.555 1294.76 174.191 1304.52 167.226C1314.43 160.107 1327.75 156.547 1344.47 156.547C1352.99 156.547 1361.5 157.553 1370.02 159.565C1378.54 161.422 1385.51 163.976 1390.93 167.226L1379.78 189.282C1369.25 183.091 1357.4 179.996 1344.24 179.996C1335.72 179.996 1329.22 181.311 1324.73 183.942C1320.39 186.419 1318.22 189.747 1318.22 193.926C1318.22 198.569 1320.54 201.897 1325.19 203.909C1329.99 205.766 1337.35 207.546 1347.26 209.249C1357.17 210.796 1365.3 212.576 1371.65 214.588C1378 216.6 1383.42 220.006 1387.91 224.804C1392.55 229.602 1394.88 236.412 1394.88 245.234C1394.88 256.843 1389.84 266.129 1379.78 273.094C1369.71 280.059 1356.01 283.542 1338.66 283.542Z" fill="white" fill-opacity="0.6"/>
</svg>
