<svg width="3273" height="1029" viewBox="0 0 3273 1029" fill="none" xmlns="http://www.w3.org/2000/svg">
<path d="M13.47 26.34L5 964.82H467.87V1024.46H2782.24V961.98L3267.83 967.66V773.14V5L2921.39 5L2813.48 78.83V5H2356.28L2281.74 164.02L2200.1 5H1968.66V95.87L1904.77 161.18L1876.37 5H1617.96L1521.41 195.26L1518.57 5H1271.51V164.02L1203.36 5H822.84L756.82 118.59L720.61 5H528.22L490.59 78.83L433.8 5H13.52L13.47 26.34Z" fill="#0C0707" stroke="black" stroke-width="9" stroke-miterlimit="10"/>
<path d="M395.69 74.1001H56.8203V712.1H399.01L494.13 619.33L486.06 173.41L395.69 74.1001ZM343.63 581.47L335.13 590.93H213.95L207.33 579.57V214.2L220.55 197.2L326.45 198.41L339.65 210.51L343.63 581.47Z" fill="white" stroke="#172514" stroke-miterlimit="10"/>
<path d="M804.37 707.27H694.36L695.76 420.55L543.85 74.1001H670.2L749.72 263.65L848.19 74.1001H968.11L807.93 422.68" fill="white"/>
<path d="M1042.09 74.1001L1042.08 707.27H1173.65L1171.3 416.29L1358.45 707.27H1455.19L1446.75 74.1001H1313.28L1316.47 383.15L1166.2 74.1001H1042.09Z" fill="white"/>
<path d="M2013.38 74.1001V707.27H2152.53V406.35L2270.38 595.19L2383.97 404.93V707.27H2523.15L2513.33 74.1001H2394.44L2277.48 294.18L2134.07 74.1001H2013.38Z" fill="white"/>
<path d="M2591.97 74.1001L2591.27 704.52H2744.62L2730.63 74.1001H2591.97Z" fill="white"/>
<path d="M2902.21 74.1001L2819.87 142.25V636.36L2896.53 707.27L3191.87 704.52L3230.21 656.24V500.06L3116.62 501.48L3113.78 598.03L2951.91 595.19L2956.17 199.05L3108.1 197.63V287.08L3221.69 284.24L3223.11 133.73L3175.53 74.1001H2902.21Z" fill="white"/>
<path d="M1800.13 74.1001H1652.02L1493.5 707.26H1641.05L1675.46 568.26L1774.85 566.84L1814.98 707.26H1955.13L1800.13 74.1001ZM1692.47 462.2L1724.65 304.12L1756.83 462.2H1692.47Z" fill="white"/>
<path d="M454.38 803.91H65.3398V883.42H454.38V803.91Z" fill="#D72000"/>
<path d="M680.61 768.41H518.75V816.69H680.61V768.41Z" fill="#ECBA3A"/>
<path d="M680.61 883.42H518.75V931.7H680.61V883.42Z" fill="#ECBA3A"/>
<path d="M3189.03 803.91H2799.99V883.42H3189.03V803.91Z" fill="#D72000"/>
<path d="M2698.47 768.41H2536.61V816.69H2698.47V768.41Z" fill="#ECBA3A"/>
<path d="M2698.47 883.42H2536.61V931.7H2698.47V883.42Z" fill="#ECBA3A"/>
<path d="M780.74 958.5V759.678H912.382V794.336H822.776V841.712H903.645V876.369H822.776V958.5H780.74ZM1072.91 759.678V958.5H1030.87V759.678H1072.91ZM1190.14 794.336V759.678H1353.43V794.336H1292.56V958.5H1251.01V794.336H1190.14ZM1636.83 759.678V958.5H1600.53L1514.03 833.363H1512.57V958.5H1470.53V759.678H1507.42L1593.24 884.718H1594.99V759.678H1636.83ZM1761.78 958.5V759.678H1895.75V794.336H1803.82V841.712H1888.86V876.369H1803.82V923.842H1896.14V958.5H1761.78ZM2127.24 816.859C2126.47 809.028 2123.13 802.944 2117.24 798.608C2111.35 794.271 2103.36 792.103 2093.27 792.103C2086.4 792.103 2080.61 793.074 2075.89 795.016C2071.16 796.893 2067.54 799.514 2065.01 802.879C2062.56 806.245 2061.33 810.063 2061.33 814.335C2061.2 817.894 2061.94 821.001 2063.56 823.655C2065.24 826.308 2067.54 828.606 2070.45 830.547C2073.36 832.424 2076.73 834.075 2080.55 835.498C2084.37 836.858 2088.44 838.023 2092.78 838.993L2110.64 843.265C2119.32 845.207 2127.28 847.795 2134.52 851.031C2141.77 854.267 2148.05 858.248 2153.36 862.972C2158.67 867.697 2162.78 873.263 2165.69 879.67C2168.66 886.078 2170.19 893.423 2170.25 901.708C2170.19 913.875 2167.08 924.425 2160.93 933.356C2154.85 942.223 2146.05 949.116 2134.52 954.034C2123.07 958.888 2109.25 961.315 2093.07 961.315C2077.02 961.315 2063.04 958.856 2051.13 953.937C2039.29 949.018 2030.03 941.737 2023.37 932.094C2016.77 922.386 2013.3 910.38 2012.98 896.077H2053.66C2054.11 902.743 2056.02 908.309 2059.38 912.775C2062.81 917.176 2067.38 920.509 2073.07 922.774C2078.83 924.975 2085.34 926.075 2092.59 926.075C2099.71 926.075 2105.89 925.039 2111.13 922.968C2116.44 920.897 2120.55 918.017 2123.46 914.328C2126.37 910.639 2127.83 906.4 2127.83 901.611C2127.83 897.145 2126.5 893.391 2123.85 890.349C2121.26 887.307 2117.44 884.718 2112.39 882.583C2107.41 880.447 2101.29 878.505 2094.04 876.758L2072.39 871.321C2055.63 867.244 2042.39 860.869 2032.69 852.196C2022.98 843.524 2018.16 831.842 2018.22 817.15C2018.16 805.112 2021.36 794.595 2027.83 785.599C2034.37 776.603 2043.33 769.58 2054.72 764.532C2066.12 759.484 2079.06 756.96 2093.56 756.96C2108.31 756.96 2121.19 759.484 2132.19 764.532C2143.26 769.58 2151.87 776.603 2158.02 785.599C2164.17 794.595 2167.34 805.015 2167.53 816.859H2127.24ZM2396.6 816.859C2395.82 809.028 2392.49 802.944 2386.6 798.608C2380.71 794.271 2372.72 792.103 2362.62 792.103C2355.76 792.103 2349.97 793.074 2345.24 795.016C2340.52 796.893 2336.89 799.514 2334.37 802.879C2331.91 806.245 2330.68 810.063 2330.68 814.335C2330.55 817.894 2331.29 821.001 2332.91 823.655C2334.6 826.308 2336.89 828.606 2339.81 830.547C2342.72 832.424 2346.08 834.075 2349.9 835.498C2353.72 836.858 2357.8 838.023 2362.13 838.993L2380 843.265C2388.67 845.207 2396.63 847.795 2403.88 851.031C2411.13 854.267 2417.41 858.248 2422.71 862.972C2428.02 867.697 2432.13 873.263 2435.04 879.67C2438.02 886.078 2439.54 893.423 2439.6 901.708C2439.54 913.875 2436.43 924.425 2430.28 933.356C2424.2 942.223 2415.4 949.116 2403.88 954.034C2392.42 958.888 2378.61 961.315 2362.43 961.315C2346.37 961.315 2332.39 958.856 2320.49 953.937C2308.64 949.018 2299.39 941.737 2292.72 932.094C2286.12 922.386 2282.66 910.38 2282.33 896.077H2323.01C2323.46 902.743 2325.37 908.309 2328.74 912.775C2332.17 917.176 2336.73 920.509 2342.43 922.774C2348.19 924.975 2354.69 926.075 2361.94 926.075C2369.06 926.075 2375.24 925.039 2380.48 922.968C2385.79 920.897 2389.9 918.017 2392.81 914.328C2395.72 910.639 2397.18 906.4 2397.18 901.611C2397.18 897.145 2395.85 893.391 2393.2 890.349C2390.61 887.307 2386.79 884.718 2381.74 882.583C2376.76 880.447 2370.64 878.505 2363.4 876.758L2341.75 871.321C2324.98 867.244 2311.75 860.869 2302.04 852.196C2292.33 843.524 2287.51 831.842 2287.58 817.15C2287.51 805.112 2290.71 794.595 2297.19 785.599C2303.72 776.603 2312.69 769.58 2324.08 764.532C2335.47 759.484 2348.41 756.96 2362.91 756.96C2377.67 756.96 2390.55 759.484 2401.55 764.532C2412.62 769.58 2421.22 776.603 2427.37 785.599C2433.52 794.595 2436.69 805.015 2436.89 816.859H2396.6Z" fill="white"/>
</svg>
